<svg width="24" height="31" viewBox="0 0 24 31" fill="none" xmlns="http://www.w3.org/2000/svg">
<path d="M11.8358 20.5196C10.4977 20.5196 9.24662 20.8596 8.18042 21.4503V21.767H15.4911V21.4503C14.4249 20.8596 13.1739 20.5196 11.8358 20.5196Z" fill="#FED100"/>
<path d="M16.459 27.0453H7.21289V21.7671H16.459V27.0453Z" fill="#97512C"/>
<path d="M17.0975 27.8438H6.57422V27.0452H17.0975V27.8438Z" fill="#7C3E25"/>
<path d="M12.5662 15.335C12.3389 15.4126 12.0928 15.455 11.8359 15.455C11.5791 15.455 11.333 15.4126 11.1058 15.3351L11.1068 15.3326C11.1068 14.942 10.9015 14.5347 10.4909 14.2487L10.4833 14.2452C9.04772 13.364 7.88984 12.1345 7.15478 10.6893L7.15433 10.6895C5.86893 8.18373 5.15076 5.38681 5.15076 2.43671H18.521C18.521 5.38681 17.8028 8.18373 16.5174 10.6895L16.517 10.6893C15.7819 12.1345 14.624 13.364 13.1884 14.2452L13.1811 14.2487C12.7705 14.5347 12.5652 14.9419 12.5652 15.3326L12.5662 15.335" fill="#FED100"/>
<path d="M12.4576 15.3689C12.4576 15.7388 12.6358 16.0473 12.918 16.2735H12.9189C13.0167 16.3557 13.078 16.4727 13.078 16.6036C13.078 16.8521 12.8575 17.0536 12.5854 17.0536C12.5806 17.0536 12.5758 17.0535 12.5711 17.0533H11.1005C11.0958 17.0535 11.091 17.0536 11.0862 17.0536C10.8142 17.0536 10.5936 16.8521 10.5936 16.6036C10.5936 16.4727 10.6549 16.3557 10.7527 16.2735H10.7536C11.0359 16.0473 11.2141 15.7388 11.2141 15.3689H12.4575" fill="#FED100"/>
<path d="M13.0816 20.903C12.6867 21.0095 12.2687 21.0665 11.836 21.0665C11.4033 21.0665 10.9852 21.0095 10.5903 20.903L10.5938 20.8923V20.1472C10.903 19.4795 11.0739 18.7455 11.0739 17.975C11.0739 17.658 11.045 17.3472 10.9894 17.0447H12.6825C12.6269 17.3472 12.598 17.658 12.598 17.975C12.598 18.7455 12.769 19.4795 13.0782 20.1472V20.8923L13.0816 20.903" fill="#FFDB31"/>
<path d="M7.47433 11.3139H7.47453H7.47433ZM7.47525 11.3139H7.47541H7.47525ZM7.06652 12.0439L7.06861 12.0457L7.06652 12.0439ZM7.11312 14.0945C6.77252 14.0945 6.44276 13.9831 6.18457 13.7808C5.97585 13.6172 5.95182 13.33 6.13091 13.1393C6.31004 12.9486 6.62439 12.9267 6.83328 13.0903C6.88823 13.1334 6.98141 13.1848 7.11312 13.1848C7.35043 13.1848 7.54355 13.0084 7.54355 12.7916C7.54355 12.7606 7.53964 12.7299 7.53198 12.7003C7.46469 12.4829 7.33636 12.2847 7.15973 12.1245C7.11135 12.0908 7.07631 12.056 7.05414 12.0333L2.69526 8.29745C1.25096 7.05957 0.192267 5.12137 1.0828 3.58184C1.46271 2.92512 2.22153 2.49375 3.03126 2.46831C3.04324 2.46754 3.05537 2.46713 3.06759 2.46713H3.10702C3.11879 2.46713 3.13052 2.4675 3.14214 2.46824C4.34763 2.50432 5.3163 3.41125 5.3163 4.52091C5.3163 5.03708 5.1058 5.53054 4.72351 5.91035C4.53732 6.09535 4.22228 6.10742 4.01977 5.93745C3.81725 5.76745 3.80399 5.47968 3.99009 5.29473C4.20293 5.08326 4.32013 4.80842 4.32013 4.52091C4.32013 3.89612 3.76899 3.38672 3.08738 3.37704C2.6214 3.38374 2.18189 3.62945 1.96353 4.00684C1.32168 5.11651 2.24624 6.66495 3.3769 7.63406L7.74994 11.3821C7.76244 11.3927 7.77276 11.4026 7.78159 11.4114C7.79304 11.4197 7.80412 11.4284 7.81485 11.4377C8.14009 11.7173 8.37482 12.0719 8.49372 12.4632C8.4948 12.4668 8.49585 12.4704 8.4969 12.4741C8.52528 12.5776 8.53968 12.6844 8.53968 12.7916C8.53968 13.5101 7.89976 14.0945 7.11312 14.0945" fill="#FED100"/>
<path d="M16.1974 11.3139H16.1976H16.1974ZM16.1965 11.3139H16.1966H16.1965ZM16.6033 12.0457L16.6054 12.0439L16.6033 12.0457ZM15.1322 12.7916C15.1322 12.6843 15.1466 12.5775 15.175 12.4741C15.176 12.4704 15.1771 12.4668 15.1782 12.4631C15.2971 12.0719 15.5318 11.7173 15.857 11.4376C15.8678 11.4284 15.8788 11.4197 15.8903 11.4114C15.8991 11.4026 15.9094 11.3927 15.9219 11.382L20.295 7.63403C21.4256 6.66492 22.3502 5.11648 21.7083 4.00681C21.49 3.62942 21.0505 3.38371 20.5845 3.37701C19.9029 3.38669 19.3517 3.89609 19.3517 4.52088C19.3517 4.80839 19.469 5.08323 19.6818 5.2947C19.8679 5.47965 19.8546 5.76742 19.6521 5.93742C19.4496 6.10739 19.1346 6.09532 18.9484 5.91032C18.5661 5.5305 18.3556 5.03705 18.3556 4.52088C18.3556 3.41122 19.3243 2.50429 20.5297 2.46821C20.5414 2.46747 20.5531 2.4671 20.5649 2.4671H20.6043C20.6165 2.4671 20.6286 2.46751 20.6406 2.46828C21.4503 2.49372 22.2092 2.92509 22.5891 3.58181C23.4796 5.12134 22.4209 7.05954 20.9766 8.29742L16.6177 12.0333C16.5956 12.056 16.5605 12.0908 16.5122 12.1245C16.3355 12.2846 16.2072 12.4829 16.1399 12.7003C16.1322 12.7299 16.1283 12.7606 16.1283 12.7916C16.1283 13.0084 16.3214 13.1847 16.5588 13.1847C16.6905 13.1847 16.7836 13.1334 16.8386 13.0903C17.0475 12.9267 17.3618 12.9486 17.541 13.1393C17.7201 13.3299 17.696 13.6171 17.4873 13.7807C17.2291 13.9831 16.8994 14.0945 16.5588 14.0945C15.7721 14.0945 15.1322 13.51 15.1322 12.7916" fill="#FED100"/>
<path d="M7.98918 2.99231H5.72644C5.72644 5.09834 6.17731 7.10816 6.99547 8.94583C6.8721 8.38474 6.80703 7.80439 6.80703 7.21012C6.80703 5.68112 7.23589 4.24378 7.98918 2.99231Z" fill="#FFDF5A"/>
<path d="M7.21277 27.0453H16.4589V21.7671C16.4589 21.7671 13.3689 27.0453 7.21277 27.0453Z" fill="#8D492B"/>
<path d="M15.2075 26.001H8.46448V22.9853H15.2075V26.001Z" fill="#FED100"/>
<path d="M1.46061 4.18316C1.86415 3.48557 2.67021 3.02739 3.53034 3.00033C3.54304 2.99949 3.55595 2.99904 3.56889 2.99904H3.61078C3.62328 2.99904 3.63577 2.99945 3.64811 3.00026C3.90909 3.00806 4.15934 3.0549 4.39286 3.13355C4.04879 2.8427 3.59389 2.65973 3.09314 2.64474C3.08274 2.64404 3.07222 2.64371 3.06165 2.64371H3.02634C3.01541 2.64371 3.00456 2.64407 2.99384 2.64477C2.26873 2.6676 1.58918 3.05387 1.24894 3.64195C0.882859 4.27485 0.884834 4.98297 1.119 5.67113C1.08807 5.15865 1.18863 4.65337 1.46061 4.18316" fill="#FFDF5A"/>
<path d="M8.54004 12.6608C9.10464 13.2663 9.75847 13.8002 10.4834 14.2452L10.491 14.2487C10.9016 14.5347 11.1069 14.9419 11.1069 15.3326L11.1058 15.3351C11.3331 15.4126 11.5791 15.4549 11.8359 15.4549C12.0929 15.4549 12.339 15.4126 12.5663 15.335L12.5653 15.3326C12.5653 14.9419 12.7705 14.5347 13.1811 14.2487L13.1885 14.2452C14.6241 13.364 15.7819 12.1345 16.517 10.6893L16.5175 10.6895C17.8029 8.18372 18.5211 5.3868 18.5211 2.43671C15.5671 13.1243 8.57221 12.6607 8.54004 12.6608Z" fill="#FCC200"/>
<path d="M14.9519 8.2808C14.9519 9.85247 13.5569 11.1266 11.836 11.1266C10.1151 11.1266 8.72009 9.85247 8.72009 8.2808C8.72009 6.70917 10.1151 5.43506 11.836 5.43506C13.5569 5.43506 14.9519 6.70917 14.9519 8.2808Z" fill="#FFF3C0"/>
<path d="M11.543 10.413V6.99637H10.8605V6.23776H12.4703V10.413H11.543Z" fill="#D69A13"/>
</svg>
