<svg width="24" height="21" viewBox="0 0 24 21" fill="none" xmlns="http://www.w3.org/2000/svg">
<g clip-path="url(#clip0)">
<path d="M6.66225 21.0155V20.9957H5.99748V20.9759H5.62599V20.9561H5.35226V20.9363H5.09808V20.9165H4.86346V20.8968H4.68749V20.877H4.51152V20.8572H4.316V20.8374H4.15958V20.8176H4.02272V20.7978H3.8663V20.778H3.72944V20.7582H3.59257V20.7384H3.47526V20.7186H3.35795V20.6988H3.22108V20.6791H3.10377V20.6593H3.00601V20.6395H2.8887V20.6197H2.79094V20.5999H2.67363V20.5801H2.57587V20.5603H2.55631V13.6533H2.53676V13.5741H2.51721V13.5346H2.49766V13.495H2.47811V13.4554H2.45855V13.4356H2.439V13.4158H2.41945V13.3762H2.3999V13.3564H2.38035V13.3366H2.36079V13.3169H2.32169V13.2971H2.30214V13.2773H2.28259V13.2575H2.24348V13.2377H2.20438V13.2179H2.14572V13.1981H2.08706V13.1783H0.89439V13.1585H0.757525V13.1387H0.679317V13.1189H0.620661V13.0992H0.562005V13.0794H0.522901V13.0596H0.483796V13.0398H0.464244V13.02H0.42514V13.0002H0.386036V12.9804H0.366484V12.9606H0.346932V12.9408H0.32738V12.921H0.288276V12.8815H0.268724V12.8617H0.249172V12.8419H0.22962V12.8221H0.210068V12.8023H0.190516V12.7825H0.170964V12.7429H0.151412V12.7231H0.131859V12.6836H0.112307V12.644H0.0927554V12.6044H0.0732033V12.5648H0.0536513V12.5054H0.0340992V12.4461H0.0145472V12.3471H-0.00500488V12.0107H0.0145472V11.9315H0.0340992V11.8523H0.0536513V11.8128H0.0732033V11.7732H0.0927554V11.7138H0.112307V11.694H0.131859V11.6544H0.151412V11.6346H0.170964V11.5951H0.190516V11.5753H0.210068V11.5555H0.22962V11.5357H0.249172V11.4961H0.268724V11.4763H0.288276V11.4565H0.307828V11.4367H0.32738V11.4169H0.346932V11.3971H0.366484V11.3774H0.386036V11.3576H0.405588V11.3378H0.42514V11.318H0.444692V11.2982H0.464244V11.2784H0.483796V11.2586H0.503349V11.2388H0.522901V11.219H0.542453V11.1992H0.562005V11.1794H0.581557V11.1597H0.601109V11.1399H0.620661V11.1201H0.640213V11.1003H0.659765V11.0805H0.679317V11.0607H0.698869V11.0409H0.718421V11.0211H0.737973V11.0013H0.757525V10.9815H0.777077V10.9617H0.796629V10.942H0.816181V10.9222H0.835733V10.9024H0.855285V10.8826H0.874838V10.8628H0.89439V10.843H0.913942V10.8232H0.933494V10.8034H0.953046V10.7836H0.972598V10.7638H0.99215V10.744H1.0117V10.7243H1.03125V10.7045H1.05081V10.6847H1.07036V10.6649H1.08991V10.6451H1.10946V10.6253H1.12901V10.6055H1.14857V10.5857H1.16812V10.5659H1.18767V10.5461H1.20722V10.5263H1.22677V10.5066H1.24633V10.4868H1.26588V10.467H1.28543V10.4472H1.30498V10.4274H1.32453V10.4076H1.34409V10.3878H1.36364V10.368H1.38319V10.3482H1.40274V10.3284H1.4223V10.3087H1.44185V10.2889H1.4614V10.2691H1.48095V10.2493H1.5005V10.2295H1.52006V10.2097H1.53961V10.1899H1.55916V10.1701H1.57871V10.1503H1.59826V10.1305H1.61782V10.1107H1.63737V10.091H1.65692V10.0712H1.67647V10.0514H1.69602V10.0316H1.71558V10.0118H1.73513V9.992H1.75468V9.97221H1.77423V9.95242H1.79378V9.93262H1.81334V9.91283H1.83289V9.89304H1.85244V9.87325H1.87199V9.85346H1.89154V9.83367H1.9111V9.81388H1.93065V9.79409H1.9502V9.7743H1.96975V9.75451H1.9893V9.73472H2.00886V9.71492H2.02841V9.69513H2.04796V9.67534H2.06751V9.65555H2.08706V9.63576H2.10662V9.61597H2.12617V9.59618H2.14572V9.57639H2.16527V9.5566H2.18483V9.53681H2.20438V9.51702H2.22393V9.49723H2.24348V9.47744H2.26303V9.45764H2.28259V9.43785H2.30214V9.41806H2.32169V9.39827H2.34124V9.37848H2.36079V9.35869H2.38035V9.3389H2.3999V9.31911H2.41945V9.29932H2.439V9.27953H2.45855V9.25974H2.47811V9.23994H2.49766V9.22015H2.51721V9.20036H2.53676V9.18057H2.55631V9.16078H2.57587V9.14099H2.59542V9.1212H2.61497V9.10141H2.63452V9.08162H2.65407V9.06183H2.67363V9.04204H2.69318V9.02225H2.71273V9.00245H2.73228V8.98266H2.75183V8.96287H2.77139V8.94308H2.79094V8.92329H2.83004V8.9035H2.8496V8.88371H2.86915V8.86392H2.8887V8.84413H2.90825V8.82434H2.9278V8.80455H2.94736V8.78476H2.96691V8.76496H2.98646V8.74517H3.00601V8.72538H3.02556V8.70559H3.04512V8.6858H3.06467V8.66601H3.08422V8.64622H3.10377V8.62643H3.12332V8.60664H3.14288V8.58685H3.16243V8.56706H3.18198V8.54727H3.20153V8.52747H3.22108V8.50768H3.24064V8.48789H3.26019V8.4681H3.27974V8.44831H3.29929V8.42852H3.31884V8.40873H3.3384V8.38894H3.35795V8.36915H3.3775V8.34936H3.39705V8.32957H3.4166V8.30978H3.43616V8.28998H3.45571V8.27019H3.47526V8.2504H3.49481V8.23061H3.51436V8.21082H3.53392V8.19103H3.55347V8.17124H3.57302V8.15145H3.59257V8.13166H3.61213V8.11187H3.63168V8.09208H3.65123V8.07228H3.67078V8.05249H3.69033V8.0327H3.70989V8.01291H3.72944V7.99312H3.74899V7.97333H3.76854V7.95354H3.78809V7.93375H3.80765V7.91396H3.8272V7.89417H3.84675V7.87438H3.8663V7.85459H3.88585V7.83479H3.90541V7.815H3.92496V7.79521H3.94451V7.77542H3.96406V7.75563H3.98361V7.73584H4.00317V7.71605H4.02272V7.69626H4.04227V7.67647H4.06182V7.65668H4.08137V7.63689H4.10093V7.6171H4.12048V7.59731H4.14003V7.57751H4.15958V7.55772H4.17913V7.53793H4.19869V7.51814H4.21824V7.49835H4.23779V7.47856H4.25734V7.45877H4.2769V7.43898H4.29645V7.41919H4.316V7.3994H4.33555V7.37961H4.3551V7.35981H4.37466V7.34002H4.39421V7.32023H4.41376V7.30044H4.43331V7.28065H4.45286V7.26086H4.47242V7.24107H4.49197V7.22128H4.51152V7.20149H4.53107V7.1817H4.55062V7.16191H4.57018V7.14212H4.58973V7.12232H4.60928V7.10253H4.62883V7.08274H4.64838V7.06295H4.66794V7.04316H4.68749V7.02337H4.70704V7.00358H4.72659V6.98379H4.74614V6.964H4.7657V6.94421H4.78525V6.92442H4.8048V6.90463H4.82435V6.88483H4.8439V6.86504H4.86346V6.84525H4.88301V6.82546H4.90256V6.80567H4.92211V6.78588H4.94166V6.76609H4.96122V6.7463H4.98077V6.72651H5.00032V6.70672H5.01987V6.68693H5.03942V6.66714H5.05898V6.64734H5.07853V6.62755H5.09808V6.60776H5.11763V6.58797H5.13719V6.56818H5.15674V6.54839H5.17629V6.5286H5.19584V6.50881H5.21539V6.48902H5.23495V6.46923H5.2545V6.44944H5.27405V6.42965H5.2936V6.40985H5.31315V6.39006H5.33271V6.37027H5.35226V6.35048H5.37181V6.33069H5.39136V6.3109H5.41091V6.29111H5.43047V6.27132H5.45002V6.25153H5.46957V6.23174H5.48912V6.21195H5.50867V6.19215H5.52823V6.17236H5.54778V6.15257H5.56733V6.13278H5.58688V6.11299H5.60643V6.0932H5.62599V6.07341H5.64554V6.05362H5.66509V6.03383H5.68464V6.01404H5.7042V5.99425H5.72375V5.97446H5.7433V5.95467H5.76285V5.93487H5.7824V5.91508H5.80196V5.89529H5.82151V5.8755H5.84106V5.85571H5.86061V5.83592H5.88016V5.81613H5.89972V5.79634H5.91927V5.77655H5.93882V5.75676H5.95837V5.73697H5.97792V5.71717H5.99748V5.69738H6.01703V5.67759H6.03658V5.6578H6.05613V5.63801H6.07568V5.61822H6.09524V5.59843H6.11479V5.57864H6.13434V5.55885H6.15389V5.53906H6.17344V5.51927H6.193V5.49948H6.21255V5.47968H6.2321V5.45989H6.25165V5.4401H6.2712V5.42031H6.29076V5.40052H6.31031V5.38073H6.32986V5.36094H6.34941V5.34115H6.36896V5.32136H6.38852V5.30157H6.40807V5.28178H6.42762V5.26199H6.44717V5.2422H6.46672V5.2224H6.48628V5.20261H6.50583V5.18282H6.52538V5.16303H6.54493V5.14324H6.56449V5.12345H6.58404V5.10366H6.60359V5.08387H6.62314V5.06408H6.64269V5.04429H6.66225V5.0245H6.6818V5.00471H6.70135V4.98491H6.7209V4.96512H6.74045V4.94533H6.76001V4.92554H6.77956V4.90575H6.79911V4.88596H6.81866V4.86617H6.83821V4.84638H6.85777V4.82659H6.87732V4.8068H6.89687V4.78701H6.91642V4.76721H6.93597V4.74742H6.95553V4.72763H6.97508V4.70784H6.99463V4.68805H7.01418V4.66826H7.03373V4.64847H7.05329V4.62868H7.07284V4.60889H7.09239V4.5891H7.11194V4.56931H7.13149V4.54951H7.15105V4.52972H7.1706V4.50993H7.19015V4.49014H7.2097V4.47035H7.22926V4.45056H7.24881V4.43077H7.26836V4.41098H7.28791V4.39119H7.30746V4.3714H7.32702V4.35161H7.34657V4.33182H7.36612V4.31203H7.38567V4.29223H7.40522V4.27244H7.42478V4.25265H7.44433V4.23286H7.46388V4.21307H7.48343V4.19328H7.50298V4.17349H7.52254V4.1537H7.54209V4.13391H7.56164V4.11412H7.58119V4.09433H7.60074V4.07454H7.6203V4.05474H7.63985V4.03495H7.6594V4.01516H7.67895V3.99537H7.6985V3.97558H7.71806V3.95579H7.73761V3.936H7.75716V3.91621H7.77671V3.89642H7.79626V3.87663H7.81582V3.85684H7.83537V3.83705H7.85492V3.81726H7.87447V3.79746H7.89402V3.77767H7.91358V3.75788H7.93313V3.73809H7.95268V3.7183H7.97223V3.69851H7.99179V3.67872H8.01134V3.65893H8.03089V3.63914H8.05044V3.61935H8.06999V3.59955H8.08955V3.57976H8.1091V3.55997H8.12865V3.54018H8.1482V3.52039H8.16775V3.5006H8.18731V3.48081H8.20686V3.46102H8.22641V3.44123H8.24596V3.42144H8.26551V3.40165H8.28507V3.38186H8.30462V3.36206H8.32417V3.34227H8.34372V3.32248H8.36327V3.30269H8.38283V3.2829H8.40238V3.26311H8.42193V3.24332H8.44148V3.22353H8.46103V3.20374H8.48059V3.18395H8.50014V3.16416H8.51969V3.14437H8.53924V3.12457H8.55879V3.10478H8.57835V3.08499H8.5979V3.0652H8.61745V3.04541H8.637V3.02562H8.65656V3.00583H8.67611V2.98604H8.69566V2.96625H8.71521V2.94646H8.73476V2.92667H8.75432V2.90688H8.77387V2.88708H8.79342V2.86729H8.81297V2.8475H8.83252V2.82771H8.85208V2.80792H8.87163V2.78813H8.89118V2.76834H8.91073V2.74855H8.93028V2.72876H8.94984V2.70897H8.96939V2.68918H8.98894V2.66939H9.00849V2.6496H9.02804V2.6298H9.0476V2.61001H9.06715V2.59022H9.0867V2.57043H9.10625V2.55064H9.1258V2.53085H9.14536V2.51106H9.16491V2.49127H9.18446V2.47148H9.20401V2.45169H9.22356V2.4319H9.24312V2.4121H9.26267V2.39231H9.28222V2.37252H9.30177V2.35273H9.32132V2.33294H9.34088V2.31315H9.36043V2.29336H9.37998V2.27357H9.39953V2.25378H9.41909V2.23399H9.43864V2.2142H9.45819V2.1944H9.47774V2.17461H9.49729V2.15482H9.51685V2.13503H9.5364V2.11524H9.55595V2.09545H9.5755V2.07566H9.59505V2.05587H9.61461V2.03608H9.63416V2.01629H9.65371V1.9965H9.67326V1.97671H9.69281V1.95691H9.71237V1.93712H9.73192V1.91733H9.75147V1.89754H9.77102V1.87775H9.79057V1.85796H9.81013V1.83817H9.82968V1.81838H9.84923V1.79859H9.86878V1.7788H9.88833V1.75901H9.90789V1.73922H9.92744V1.71943H9.94699V1.69963H9.96654V1.67984H9.98609V1.66005H10.0056V1.64026H10.0252V1.62047H10.0448V1.60068H10.0643V1.58089H10.0839V1.5611H10.1034V1.54131H10.123V1.52152H10.1425V1.50173H10.1621V1.48194H10.1816V1.46214H10.2012V1.44235H10.2207V1.42256H10.2403V1.40277H10.2598V1.38298H10.2794V1.36319H10.2989V1.3434H10.3185V1.32361H10.338V1.30382H10.3576V1.28403H10.3771V1.26424H10.3967V1.24445H10.4162V1.22465H10.4358V1.20486H10.4553V1.18507H10.4749V1.16528H10.4944V1.14549H10.514V1.1257H10.5336V1.10591H10.5531V1.08612H10.5727V1.06633H10.5922V1.04654H10.6118V1.02674H10.6313V1.00695H10.6509V0.987164H10.6704V0.967373H10.69V0.947582H10.7095V0.927792H10.7291V0.908001H10.7486V0.88821H10.7682V0.86842H10.7877V0.848629H10.8073V0.828836H10.8268V0.809046H10.8464V0.789255H10.8659V0.769464H10.8855V0.749674H10.905V0.729883H10.9246V0.710093H10.9441V0.690302H10.9637V0.670511H10.9832V0.650719H11.0028V0.630928H11.0224V0.611137H11.0419V0.591347H11.0615V0.571556H11.081V0.551765H11.1006V0.531975H11.1201V0.512184H11.1397V0.492393H11.1592V0.472603H11.1788V0.45281H11.1983V0.43302H11.2179V0.413229H11.2374V0.393438H11.257V0.373648H11.2765V0.353857H11.2961V0.334066H11.3156V0.314276H11.3352V0.294485H11.3547V0.274694H11.3743V0.254902H11.3938V0.235111H11.4329V0.215321H11.4525V0.19553H11.4916V0.175739H11.5307V0.155949H11.5503V0.136158H11.5894V0.116367H11.6285V0.0965767H11.7067V0.076786H11.7653V0.0569935H11.9022V0.0372028H12.0977V0.0569935H12.2346V0.076786H12.2932V0.0965767H12.3714V0.116367H12.4105V0.136158H12.4497V0.155949H12.4692V0.175739H12.5083V0.19553H12.5474V0.215321H12.567V0.235111H12.6061V0.254902H12.6256V0.274694H12.6452V0.294485H12.6647V0.314276H12.6843V0.334066H12.7038V0.353857H12.7234V0.373648H12.7429V0.393438H12.7625V0.413229H12.782V0.43302H12.8016V0.45281H12.8211V0.472603H12.8407V0.492393H12.8602V0.512184H12.8798V0.531975H12.8994V0.551765H12.9189V0.571556H12.9385V0.591347H12.958V0.611137H12.9776V0.630928H12.9971V0.650719H13.0167V0.670511H13.0362V0.690302H13.0558V0.710093H13.0753V0.729883H13.0949V0.749674H13.1144V0.769464H13.134V0.789255H13.1535V0.809046H13.1731V0.828836H13.1926V0.848629H13.2122V0.86842H13.2317V0.88821H13.2513V0.908001H13.2708V0.927792H13.2904V0.947582H13.3099V0.967373H13.3295V0.987164H13.349V1.00695H13.3686V1.02674H13.3882V1.04654H13.4077V1.06633H13.4273V1.08612H13.4468V1.10591H13.4664V1.1257H13.4859V1.14549H13.5055V1.16528H13.525V1.18507H13.5446V1.20486H13.5641V1.22465H13.5837V1.24445H13.6032V1.26424H13.6228V1.28403H13.6423V1.30382H13.6619V1.32361H13.6814V1.3434H13.701V1.36319H13.7205V1.38298H13.7401V1.40277H13.7596V1.42256H13.7792V1.44235H13.7987V1.46214H13.8183V1.48194H13.8378V1.50173H13.8574V1.52152H13.877V1.54131H13.8965V1.5611H13.9161V1.58089H13.9356V1.60068H13.9552V1.62047H13.9747V1.64026H13.9943V1.66005H14.0138V1.67984H14.0334V1.69963H14.0529V1.71943H14.0725V1.73922H14.092V1.75901H14.1116V1.7788H14.1311V1.79859H14.1507V1.81838H14.1702V1.83817H14.1898V1.85796H14.2093V1.87775H14.2289V1.89754H14.2484V1.91733H14.268V1.93712H14.2875V1.95691H14.3071V1.97671H14.3267V1.9965H14.3462V2.01629H14.3658V2.03608H14.3853V2.05587H14.4049V2.07566H14.4244V2.09545H14.444V2.11524H14.4635V2.13503H14.4831V2.15482H14.5026V2.17461H14.5222V2.1944H14.5417V2.2142H14.5613V2.23399H14.5808V2.25378H14.6004V2.27357H14.6199V2.29336H14.6395V2.31315H14.659V2.33294H14.6786V2.35273H14.6981V2.37252H14.7177V2.39231H14.7372V2.4121H14.7568V2.4319H14.7763V2.45169H14.7959V2.47148H14.8155V2.49127H14.835V2.51106H14.8546V2.53085H14.8741V2.55064H14.8937V2.57043H14.9132V2.59022H14.9328V2.61001H14.9523V2.6298H14.9719V2.6496H14.9914V2.66939H15.011V2.68918H15.0305V2.70897H15.0501V2.72876H15.0696V2.74855H15.0892V2.76834H15.1087V2.78813H15.1283V2.80792H15.1478V2.82771H15.1674V2.8475H15.1869V2.86729H15.2065V2.88708H15.226V2.90688H15.2456V2.92667H15.2651V2.94646H15.2847V2.96625H15.3043V2.98604H15.3238V3.00583H15.3434V3.02562H15.3629V3.04541H15.3825V3.0652H15.402V3.08499H15.4216V3.10478H15.4411V3.12457H15.4607V3.14437H15.4802V3.16416H15.4998V3.18395H15.5193V3.20374H15.5389V3.22353H15.5584V3.24332H15.578V3.26311H15.5975V3.2829H15.6171V3.30269H15.6366V3.32248H15.6562V3.34227H15.6757V3.36206H15.6953V3.38186H15.7148V3.40165H15.7344V3.42144H15.754V3.44123H15.7735V3.46102H15.7931V3.48081H15.8126V3.5006H15.8322V3.52039H15.8517V3.54018H15.8713V3.55997H15.8908V3.57976H15.9104V3.59955H15.9299V3.61935H15.9495V3.63914H15.969V3.65893H15.9886V3.67872H16.0081V3.69851H16.0277V3.7183H16.0472V3.73809H16.0668V3.75788H16.0863V3.77767H16.1059V3.79746H16.1254V3.81726H16.145V3.83705H16.1645V3.85684H16.1841V3.87663H16.2036V3.89642H16.2232V3.91621H16.2428V3.936H16.2623V3.95579H16.2819V3.97558H16.3014V3.99537H16.321V4.01516H16.3405V4.03495H16.3601V4.05474H16.3796V4.07454H16.3992V4.09433H16.4187V4.11412H16.4383V4.13391H16.4578V4.1537H16.4774V4.17349H16.4969V4.19328H16.5165V4.21307H16.536V4.23286H16.5556V4.25265H16.5751V4.27244H16.5947V4.29223H16.6142V4.31203H16.6338V4.33182H16.6533V4.35161H16.6729V4.3714H16.6924V4.39119H16.712V4.41098H16.7316V4.43077H16.7511V4.45056H16.7707V4.47035H16.7902V4.49014H16.8098V4.50993H16.8293V4.52972H16.8489V4.54951H16.8684V4.56931H16.888V4.5891H16.9075V4.60889H16.9271V4.62868H16.9466V4.64847H16.9662V4.66826H16.9857V4.68805H17.0053V4.70784H17.0248V4.72763H17.0444V4.74742H17.0639V4.76721H17.0835V4.78701H17.103V4.8068H17.1226V4.82659H17.1421V4.84638H17.1617V4.86617H17.1812V4.88596H17.2008V4.90575H17.2204V4.92554H17.2399V4.94533H17.2595V4.96512H17.279V4.98491H17.2986V5.00471H17.3181V5.0245H17.3377V5.04429H17.3572V5.06408H17.3768V5.08387H17.3963V5.10366H17.4159V5.12345H17.4354V5.14324H17.455V5.16303H17.4745V5.18282H17.4941V5.20261H17.5136V5.2224H17.5332V5.2422H17.5527V5.26199H17.5723V5.28178H17.5918V5.30157H17.6114V5.32136H17.6309V5.34115H17.6505V5.36094H17.6701V5.38073H17.6896V5.40052H17.7092V5.42031H17.7287V5.4401H17.7483V5.45989H17.7678V5.47968H17.7874V5.49948H17.8069V5.51927H17.8265V5.53906H17.846V5.55885H17.8656V5.57864H17.8851V5.59843H17.9047V5.61822H17.9242V5.63801H17.9438V5.6578H17.9633V5.67759H17.9829V5.69738H18.0024V5.71717H18.022V5.73697H18.0415V5.75676H18.0611V5.77655H18.0806V5.79634H18.1002V5.81613H18.1197V5.83592H18.1393V5.85571H18.1589V5.8755H18.1784V5.89529H18.198V5.91508H18.2175V5.93487H18.2371V5.95467H18.2566V5.97446H18.2762V5.99425H18.2957V6.01404H18.3153V6.03383H18.3348V6.05362H18.3544V6.07341H18.3739V6.0932H18.3935V6.11299H18.413V6.13278H18.4326V6.15257H18.4521V6.17236H18.4717V6.19215H18.4912V6.21195H18.5108V6.23174H18.5303V6.25153H18.5499V6.27132H18.5694V6.29111H18.589V6.3109H18.6086V6.33069H18.6281V6.35048H18.6477V6.37027H18.6672V6.39006H18.6868V6.40985H18.7063V6.42965H18.7259V6.44944H18.7454V6.46923H18.765V6.48902H18.7845V6.50881H18.8041V6.5286H18.8236V6.54839H18.8432V6.56818H18.8627V6.58797H18.8823V6.60776H18.9018V6.62755H18.9214V6.64734H18.9409V6.66714H18.9605V6.68693H18.98V6.70672H18.9996V6.72651H19.0191V6.7463H19.0387V6.76609H19.0582V6.78588H19.0778V6.80567H19.0974V6.82546H19.1169V6.84525H19.1365V6.86504H19.156V6.88483H19.1756V6.90463H19.1951V6.92442H19.2147V6.94421H19.2342V6.964H19.2538V6.98379H19.2733V7.00358H19.2929V7.02337H19.3124V7.04316H19.332V7.06295H19.3515V7.08274H19.3711V7.10253H19.3906V7.12232H19.4102V7.14212H19.4297V7.16191H19.4493V7.1817H19.4688V7.20149H19.4884V7.22128H19.5079V7.24107H19.5275V7.26086H19.547V7.28065H19.5666V7.30044H19.5862V7.32023H19.6057V7.34002H19.6253V7.35981H19.6448V7.37961H19.6644V7.3994H19.6839V7.41919H19.7035V7.43898H19.723V7.45877H19.7426V7.47856H19.7621V7.49835H19.7817V7.51814H19.8012V7.53793H19.8208V7.55772H19.8403V7.57751H19.8599V7.59731H19.8794V7.6171H19.899V7.63689H19.9185V7.65668H19.9381V7.67647H19.9576V7.69626H19.9772V7.71605H19.9967V7.73584H20.0163V7.75563H20.0359V7.77542H20.0554V7.79521H20.075V7.815H20.0945V7.83479H20.1141V7.85459H20.1336V7.87438H20.1532V7.89417H20.1727V7.91396H20.1923V7.93375H20.2118V7.95354H20.2314V7.97333H20.2509V7.99312H20.2705V8.01291H20.29V8.0327H20.3096V8.05249H20.3291V8.07228H20.3487V8.09208H20.3682V8.11187H20.3878V8.13166H20.4073V8.15145H20.4269V8.17124H20.4464V8.19103H20.466V8.21082H20.4855V8.23061H20.5051V8.2504H20.5247V8.27019H20.5442V8.28998H20.5638V8.30978H20.5833V8.32957H20.6029V8.34936H20.6224V8.36915H20.642V8.38894H20.6615V8.40873H20.6811V8.42852H20.7006V8.44831H20.7202V8.4681H20.7397V8.48789H20.7593V8.50768H20.7788V8.52747H20.7984V8.54727H20.8179V8.56706H20.8375V8.58685H20.857V8.60664H20.8766V8.62643H20.8961V8.64622H20.9157V8.66601H20.9352V8.6858H20.9548V8.70559H20.9743V8.72538H20.9939V8.74517H21.0135V8.76496H21.033V8.78476H21.0526V8.80455H21.0721V8.82434H21.0917V8.84413H21.1112V8.86392H21.1308V8.88371H21.1503V8.9035H21.1699V8.92329H21.1894V8.94308H21.2285V8.96287H21.2481V8.98266H21.2676V9.00245H21.2872V9.02225H21.3067V9.04204H21.3263V9.06183H21.3458V9.08162H21.3654V9.10141H21.3849V9.1212H21.4045V9.14099H21.424V9.16078H21.4436V9.18057H21.4632V9.20036H21.4827V9.22015H21.5023V9.23994H21.5218V9.25974H21.5414V9.27953H21.5609V9.29932H21.5805V9.31911H21.6V9.3389H21.6196V9.35869H21.6391V9.37848H21.6587V9.39827H21.6782V9.41806H21.6978V9.43785H21.7173V9.45764H21.7369V9.47744H21.7564V9.49723H21.776V9.51702H21.7955V9.53681H21.8151V9.5566H21.8346V9.57639H21.8542V9.59618H21.8737V9.61597H21.8933V9.63576H21.9128V9.65555H21.9324V9.67534H21.952V9.69513H21.9715V9.71492H21.9911V9.73472H22.0106V9.75451H22.0302V9.7743H22.0497V9.79409H22.0693V9.81388H22.0888V9.83367H22.1084V9.85346H22.1279V9.87325H22.1475V9.89304H22.167V9.91283H22.1866V9.93262H22.2061V9.95242H22.2257V9.97221H22.2452V9.992H22.2648V10.0118H22.2843V10.0316H22.3039V10.0514H22.3234V10.0712H22.343V10.091H22.3625V10.1107H22.3821V10.1305H22.4016V10.1503H22.4212V10.1701H22.4408V10.1899H22.4603V10.2097H22.4799V10.2295H22.4994V10.2493H22.519V10.2691H22.5385V10.2889H22.5581V10.3087H22.5776V10.3284H22.5972V10.3482H22.6167V10.368H22.6363V10.3878H22.6558V10.4076H22.6754V10.4274H22.6949V10.4472H22.7145V10.467H22.734V10.4868H22.7536V10.5066H22.7731V10.5263H22.7927V10.5461H22.8122V10.5659H22.8318V10.5857H22.8513V10.6055H22.8709V10.6253H22.8904V10.6451H22.91V10.6649H22.9296V10.6847H22.9491V10.7045H22.9687V10.7243H22.9882V10.744H23.0078V10.7638H23.0273V10.7836H23.0469V10.8034H23.0664V10.8232H23.086V10.843H23.1055V10.8628H23.1251V10.8826H23.1446V10.9024H23.1642V10.9222H23.1837V10.942H23.2033V10.9617H23.2228V10.9815H23.2424V11.0013H23.2619V11.0211H23.2815V11.0409H23.301V11.0607H23.3206V11.0805H23.3401V11.1003H23.3597V11.1201H23.3793V11.1399H23.3988V11.1597H23.4184V11.1794H23.4379V11.1992H23.4575V11.219H23.477V11.2388H23.4966V11.2586H23.5161V11.2784H23.5357V11.2982H23.5552V11.318H23.5748V11.3378H23.5943V11.3576H23.6139V11.3774H23.6334V11.3971H23.653V11.4169H23.6725V11.4367H23.6921V11.4565H23.7116V11.4763H23.7312V11.4961H23.7507V11.5357H23.7703V11.5555H23.7898V11.5753H23.8094V11.5951H23.8289V11.6346H23.8485V11.6544H23.8681V11.694H23.8876V11.7138H23.9072V11.7732H23.9267V11.8128H23.9463V11.8523H23.9658V11.9315H23.9854V12.0107H24.0049V12.3471H23.9854V12.4461H23.9658V12.5054H23.9463V12.5648H23.9267V12.6044H23.9072V12.644H23.8876V12.6836H23.8681V12.7231H23.8485V12.7429H23.8289V12.7825H23.8094V12.8023H23.7898V12.8221H23.7703V12.8419H23.7507V12.8617H23.7312V12.8815H23.7116V12.921H23.6725V12.9408H23.653V12.9606H23.6334V12.9804H23.6139V13.0002H23.5748V13.02H23.5357V13.0398H23.5161V13.0596H23.477V13.0794H23.4379V13.0992H23.3793V13.1189H23.3206V13.1387H23.2424V13.1585H23.1055V13.1783H21.9128V13.1981H21.8542V13.2179H21.7955V13.2377H21.7564V13.2575H21.7369V13.2773H21.6978V13.2971H21.6782V13.3169H21.6587V13.3366H21.6196V13.3564H21.6V13.396H21.5805V13.4158H21.5609V13.4356H21.5414V13.4752H21.5218V13.5148H21.5023V13.5346H21.4827V13.5939H21.4632V13.6731H21.4436V15.2366H21.4632V17.3542H21.4827V18.0865H21.3263V18.1062H21.1503V18.126H21.0135V18.1458H20.8766V18.1656H20.7202V18.1854H20.5833V18.2052H20.466V18.225H20.3487V18.2448H20.2509V18.2646H20.1336V18.2844H20.0359V18.3042H19.9185V18.3239H19.8208V18.3437H19.7035V18.3635H19.6057V18.3833H19.5079V18.4031H19.4297V18.4229H19.3515V18.4427H19.2538V18.4625H19.1756V18.4823H19.0778V18.5021H18.9996V18.5218H18.9018V18.5416H18.8236V18.5614H18.7454V18.5812H18.6477V18.601H18.5694V18.6208H18.4912V18.6406H18.4326V18.6604H18.3544V18.6802H18.2762V18.7H18.198V18.7198H18.1197V18.7395H18.0415V18.7593H17.9633V18.7791H17.8851V18.7989H17.8265V18.8187H17.7483V18.8385H17.6701V18.8583H17.5918V18.8781H17.5332V18.8979H17.455V18.9177H17.3768V18.9375H17.3181V18.9572H17.2399V18.977H17.1812V18.9968H17.103V19.0166H17.0248V19.0364H16.9662V19.0562H16.888V19.076H16.8293V19.0958H16.7511V19.1156H16.6729V19.1354H16.6142V19.1552H16.536V19.1749H16.4774V19.1947H16.3992V19.2145H16.3405V19.2343H16.2819V19.2541H16.2036V19.2739H16.145V19.2937H16.0668V19.3135H16.0081V19.3333H15.9299V19.3531H15.8713V19.3729H15.7931V19.3926H15.7344V19.4124H15.6562V19.4322H15.5975V19.452H15.5193V19.4718H15.4607V19.4916H15.3825V19.5114H15.3238V19.5312H15.2456V19.551H15.1869V19.5708H15.1087V19.5906H15.0501V19.6103H14.9719V19.6301H14.9132V19.6499H14.835V19.6697H14.7763V19.6895H14.6981V19.7093H14.6395V19.7291H14.5613V19.7489H14.4831V19.7687H14.4244V19.7885H14.3462V19.8083H14.2875V19.828H14.2093V19.8478H14.1311V19.8676H14.0725V19.8874H13.9943V19.9072H13.9356V19.927H13.8574V19.9468H13.7792V19.9666H13.701V19.9864H13.6423V20.0062H13.5641V17.0969H13.5446V16.9782H13.525V16.9188H13.5055V16.8594H13.4859V16.8198H13.4664V16.7803H13.4468V16.7407H13.4273V16.7209H13.4077V16.6813H13.3882V16.6615H13.3686V16.6417H13.349V16.6219H13.3295V16.6021H13.3099V16.5823H13.2904V16.5626H13.2708V16.5428H13.2513V16.523H13.2317V16.5032H13.1926V16.4834H13.1731V16.4636H13.134V16.4438H13.0949V16.424H13.0558V16.4042H12.9971V16.3844H12.9189V16.3646H12.8211V16.3449H11.1788V16.3646H11.0615V16.3844H11.0028V16.4042H10.9441V16.424H10.905V16.4438H10.8659V16.4636H10.8268V16.4834H10.8073V16.5032H10.7682V16.523H10.7486V16.5428H10.7291V16.5626H10.7095V16.5823H10.69V16.6021H10.6704V16.6219H10.6509V16.6417H10.6313V16.6615H10.6118V16.6813H10.5922V16.7209H10.5727V16.7407H10.5531V16.7803H10.5336V16.8198H10.514V16.8594H10.4944V16.9188H10.4749V16.9782H10.4553V17.0771H10.4358V20.7186H10.3576V20.7384H10.2403V20.7582H10.1034V20.778H9.96654V20.7978H9.82968V20.8176H9.69281V20.8374H9.51685V20.8572H9.36043V20.877H9.18446V20.8968H9.02804V20.9165H8.81297V20.9363H8.55879V20.9561H8.32417V20.9759H7.97223V20.9957H7.46388V21.0155" fill="#4379B4"/>
<path d="M6.66228 21.0155V20.9957H5.99751V20.9759H5.62602V20.9561H5.3523V20.9363H5.09812V20.9165H4.86349V20.8968H4.68753V20.877H4.51156V20.8572H4.31604V20.8374H4.15962V20.8176H4.02276V20.7978H3.86634V20.778H3.72948V20.7582H3.59261V20.7384H3.4753V20.7186H3.35799V20.6988H3.22112V20.6791H3.10381V20.6593H3.00605V20.6395H2.88874V20.6197H2.79098V20.5999H2.71277V20.5801H2.73232V20.5009H2.75187V20.4218H2.77142V20.3822H2.79098V20.3228H2.81053V20.2634H2.83008V20.2041H2.84963V20.1447H2.86918V20.0853H2.88874V20.0457H2.90829V19.9864H2.92784V19.9468H2.94739V19.9072H2.96695V19.8478H2.9865V19.8083H3.00605V19.7687H3.0256V19.7291H3.04515V19.6697H3.06471V19.6301H3.08426V19.5906H3.10381V19.551H3.12336V19.5114H3.14291V19.4718H3.16247V19.4322H3.18202V19.3926H3.20157V19.3531H3.22112V19.3135H3.24067V19.2937H3.26023V19.2541H3.27978V19.2145H3.29933V19.1749H3.31888V19.1354H3.33843V19.0958H3.35799V19.076H3.37754V19.0364H3.39709V18.9968H3.41664V18.977H3.43619V18.9375H3.45575V18.8979H3.4753V18.8781H3.49485V18.8385H3.5144V18.8187H3.53395V18.7791H3.55351V18.7395H3.57306V18.7198H3.59261V18.6802H3.61216V18.6406H3.63171V18.6208H3.65127V18.601H3.67082V18.5614H3.69037V18.5416H3.70992V18.5021H3.72948V18.4823H3.74903V18.4427H3.76858V18.4229H3.78813V18.3833H3.80768V18.3635H3.82724V18.3239H3.84679V18.3042H3.86634V18.2844H3.88589V18.2448H3.90544V18.225H3.925V18.1854H3.94455V18.1656H3.9641V18.1458H3.98365V18.1062H4.0032V18.0865H4.02276V18.0667H4.04231V18.0271H4.06186V18.0073H4.08141V17.9875H4.10096V17.9479H4.12052V17.9281H4.14007V17.9083H4.15962V17.8688H4.17917V17.849H4.19872V17.8292H4.21828V17.8094H4.23783V17.7698H4.25738V17.75H4.27693V17.7302H4.29648V17.7104H4.31604V17.6708H4.33559V17.6511H4.35514V17.6313H4.37469V17.6115H4.39425V17.5719H4.4138V17.5521H4.43335V17.5323H4.4529V17.5125H4.47245V17.4927H4.49201V17.4531H4.51156V17.4334H4.53111V17.4136H4.55066V17.3938H4.57021V17.3542H4.58977V17.3344H4.60932V17.3146H4.62887V17.2948H4.64842V17.275H4.66797V17.2552H4.68753V17.2157H4.70708V17.1959H4.72663V17.1761H4.74618V17.1563H4.76573V17.1365H4.78529V17.1167H4.80484V17.0969H4.82439V17.0771H4.84394V17.0375H4.86349V17.0177H4.88305V16.998H4.9026V16.9782H4.92215V16.9584H4.9417V16.9386H4.96125V16.9188H4.98081V16.8792H5.00036V16.8594H5.01991V16.8396H5.03946V16.8198H5.05901V16.8H5.07857V16.7803H5.09812V16.7605H5.11767V16.7407H5.13722V16.7209H5.15677V16.7011H5.17633V16.6813H5.19588V16.6615H5.21543V16.6219H5.23498V16.6021H5.25454V16.5823H5.27409V16.5626H5.29364V16.5428H5.31319V16.523H5.33274V16.5032H5.3523V16.4834H5.37185V16.4636H5.3914V16.4438H5.41095V16.424H5.4305V16.4042H5.45006V16.3844H5.46961V16.3646H5.48916V16.3449H5.50871V16.3251H5.52826V16.3053H5.54782V16.2855H5.56737V16.2657H5.58692V16.2261H5.60647V16.2063H5.62602V16.1865H5.64558V16.1667H5.66513V16.1469H5.68468V16.1272H5.70423V16.1074H5.72378V16.0876H5.74334V16.0678H5.76289V16.048H5.78244V16.0282H5.80199V16.0084H5.82154V15.9886H5.8411V15.9688H5.86065V15.949H5.8802V15.9292H5.89975V15.9095H5.91931V15.8897H5.93886V15.8699H5.95841V15.8501H5.97796V15.8303H5.99751V15.8105H6.01707V15.7907H6.03662V15.7709H6.05617V15.7511H6.07572V15.7313H6.09527V15.7115H6.11483V15.6918H6.13438V15.672H6.15393V15.6522H6.17348V15.6324H6.19303V15.6126H6.21259V15.5928H6.23214V15.573H6.25169V15.5532H6.27124V15.5334H6.31035V15.5136H6.3299V15.4939H6.34945V15.4741H6.369V15.4543H6.38855V15.4345H6.40811V15.4147H6.42766V15.3949H6.44721V15.3751H6.46676V15.3553H6.48631V15.3355H6.50587V15.3157H6.52542V15.2959H6.54497V15.2762H6.56452V15.2564H6.58407V15.2366H6.60363V15.2168H6.62318V15.197H6.64273V15.1772H6.66228V15.1574H6.68184V15.1376H6.70139V15.1178H6.72094V15.098H6.74049V15.0782H6.7796V15.0585H6.79915V15.0387H6.8187V15.0189H6.83825V14.9991H6.8578V14.9793H6.87736V14.9595H6.89691V14.9397H6.91646V14.9199H6.93601V14.9001H6.95556V14.8803H6.97512V14.8605H6.99467V14.8408H7.01422V14.821H7.03377V14.8012H7.07288V14.7814H7.09243V14.7616H7.11198V14.7418H7.13153V14.722H7.15108V14.7022H7.17064V14.6824H7.19019V14.6626H7.20974V14.6428H7.22929V14.6231H7.24884V14.6033H7.2684V14.5835H7.28795V14.5637H7.3075V14.5439H7.3466V14.5241H7.36616V14.5043H7.38571V14.4845H7.40526V14.4647H7.42481V14.4449H7.44437V14.4251H7.46392V14.4054H7.48347V14.3856H7.50302V14.3658H7.52257V14.346H7.54213V14.3262H7.56168V14.3064H7.60078V14.2866H7.62033V14.2668H7.63989V14.247H7.65944V14.2272H7.67899V14.2074H7.69854V14.1877H7.71809V14.1679H7.73765V14.1481H7.7572V14.1283H7.77675V14.1085H7.81585V14.0887H7.83541V14.0689H7.85496V14.0491H7.87451V14.0293H7.89406V14.0095H7.91361V13.9897H7.93317V13.97H7.95272V13.9502H7.97227V13.9304H7.99182V13.9106H8.03093V13.8908H8.05048V13.871H8.07003V13.8512H8.08958V13.8314H8.10913V13.8116H8.12869V13.7918H8.14824V13.772H8.16779V13.7523H8.18734V13.7325H8.2069V13.7127H8.246V13.6929H8.26555V13.6731H8.2851V13.6533H8.30466V13.6335H8.32421V13.6137H8.34376V13.5939H8.36331V13.5741H8.38286V13.5543H8.40242V13.5346H8.42197V13.5148H8.46107V13.495H8.48062V13.4752H8.50018V13.4554H8.51973V13.4356H8.53928V13.4158H8.55883V13.396H8.57838V13.3762H8.59794V13.3564H8.61749V13.3366H8.63704V13.3169H8.67614V13.2971H8.6957V13.2773H8.71525V13.2575H8.7348V13.2377H8.75435V13.2179H8.7739V13.1981H8.79346V13.1783H8.81301V13.1585H8.83256V13.1387H8.85211V13.1189H8.89122V13.0992H8.91077V13.0794H8.93032V13.0596H8.94987V13.0398H8.96943V13.02H8.98898V13.0002H9.00853V12.9804H9.02808V12.9606H9.04763V12.9408H9.06719V12.921H9.10629V12.9013H9.12584V12.8815H9.14539V12.8617H9.16495V12.8419H9.1845V12.8221H9.20405V12.8023H9.2236V12.7825H9.24315V12.7627H9.26271V12.7429H9.28226V12.7231H9.32136V12.7033H9.34091V12.6836H9.36047V12.6638H9.38002V12.644H9.39957V12.6242H9.41912V12.6044H9.43867V12.5846H9.45823V12.5648H9.47778V12.545H9.49733V12.5252H9.51688V12.5054H9.55599V12.4856H9.57554V12.4659H9.59509V12.4461H9.61464V12.4263H9.63419V12.4065H9.65375V12.3867H9.6733V12.3669H9.69285V12.3471H9.7124V12.3273H9.73196V12.3075H9.75151V12.2877H9.77106V12.2679H9.79061V12.2482H9.82972V12.2284H9.84927V12.2086H9.86882V12.1888H9.88837V12.169H9.90792V12.1492H9.92748V12.1294H9.94703V12.1096H9.96658V12.0898H9.98613V12.07H10.0057V12.0502H10.0252V12.0305H10.0448V12.0107H10.0643V11.9909H10.0839V11.9711H10.1034V11.9513H10.1425V11.9315H10.1621V11.9117H10.1817V11.8919H10.2012V11.8721H10.2208V11.8523H10.2403V11.8325H10.2599V11.8128H10.2794V11.793H10.299V11.7732H10.3185V11.7534H10.3381V11.7336H10.3576V11.7138H10.3772V11.694H10.3967V11.6742H10.4163V11.6544H10.4358V11.6346H10.4554V11.6148H10.4749V11.5951H10.4945V11.5753H10.514V11.5555H10.5531V11.5357H10.5727V11.5159H10.5922V11.4961H10.6118V11.4763H10.6313V11.4565H10.6509V11.4367H10.6705V11.4169H10.69V11.3971H10.7096V11.3774H10.7291V11.3576H10.7487V11.3378H10.7682V11.318H10.7878V11.2982H10.8073V11.2784H10.8269V11.2586H10.8464V11.2388H10.866V11.219H10.8855V11.1992H10.9051V11.1794H10.9246V11.1597H10.9442V11.1399H10.9637V11.1201H10.9833V11.1003H11.0028V11.0805H11.0224V11.0607H11.0419V11.0409H11.0615V11.0211H11.081V11.0013H11.1006V10.9815H11.1202V10.9617H11.1397V10.942H11.1593V10.9222H11.1788V10.9024H11.1984V10.8826H11.2179V10.8628H11.2375V10.843H11.257V10.8232H11.2766V10.8034H11.2961V10.7836H11.3157V10.7638H11.3352V10.744H11.3548V10.7243H11.3743V10.6847H11.3939V10.6649H11.4134V10.6451H11.433V10.6253H11.4525V10.6055H11.4721V10.5857H11.4916V10.5659H11.5112V10.5461H11.5307V10.5263H11.5503V10.5066H11.5698V10.4868H11.5894V10.467H11.609V10.4472H11.6285V10.4274H11.6481V10.4076H11.6676V10.3878H11.6872V10.368H11.7067V10.3482H11.7263V10.3087H11.7458V10.2889H11.7654V10.2691H11.7849V10.2493H11.8045V10.2295H11.824V10.2097H11.8436V10.1899H11.8631V10.1701H11.8827V10.1503H11.9022V10.1107H11.9218V10.091H11.9413V10.0712H11.9609V10.0514H11.9804V10.0316H12V10.0118H12.0195V9.992H12.0391V9.97221H12.0586V9.95242H12.0782V9.91283H12.0978V9.89304H12.1173V9.87325H12.1369V9.85346H12.1564V9.83367H12.176V9.79409H12.1955V9.7743H12.2151V9.75451H12.2346V9.73472H12.2542V9.71492H12.2737V9.69513H12.2933V9.65555H12.3128V9.63576H12.3324V9.61597H12.3519V9.59618H12.3715V9.57639H12.391V9.53681H12.4106V9.51702H12.4301V9.49723H12.4497V9.47744H12.4692V9.43785H12.4888V9.41806H12.5083V9.39827H12.5279V9.37848H12.5475V9.3389H12.567V9.31911H12.5866V9.29932H12.6061V9.25974H12.6257V9.23994H12.6452V9.22015H12.6648V9.20036H12.6843V9.16078H12.7039V9.14099H12.7234V9.1212H12.743V9.10141H12.7625V9.06183H12.7821V9.04204H12.8016V9.00245H12.8212V8.98266H12.8407V8.96287H12.8603V8.92329H12.8798V8.9035H12.8994V8.86392H12.9189V8.84413H12.9385V8.82434H12.958V8.78476H12.9776V8.76496H12.9971V8.72538H13.0167V8.70559H13.0363V8.6858H13.0558V8.64622H13.0754V8.62643H13.0949V8.58685H13.1145V8.54727H13.134V8.52747H13.1536V8.48789H13.1731V8.4681H13.1927V8.42852H13.2122V8.40873H13.2318V8.36915H13.2513V8.32957H13.2709V8.30978H13.2904V8.27019H13.31V8.2504H13.3295V8.21082H13.3491V8.17124H13.3686V8.15145H13.3882V8.11187H13.4077V8.07228H13.4273V8.0327H13.4468V7.99312H13.4664V7.97333H13.4859V7.93375H13.5055V7.89417H13.5251V7.85459H13.5446V7.815H13.5642V7.77542H13.5837V7.73584H13.6033V7.69626H13.6228V7.65668H13.6424V7.6171H13.6619V7.57751H13.6815V7.53793H13.701V7.49835H13.7206V7.45877H13.7401V7.41919H13.7597V7.35981H13.7792V7.32023H13.7988V7.26086H13.8183V7.22128H13.8379V7.16191H13.8574V7.10253H13.877V7.06295H13.8965V7.00358H13.9161V6.94421H13.9356V6.88483H13.9552V6.82546H13.9748V6.76609H13.9943V6.68693H14.0139V6.62755H14.0334V6.56818H14.053V6.50881H14.0725V6.40985H14.0921V6.33069H14.1116V6.23174H14.1312V6.15257H14.1507V6.05362H14.1703V5.91508H14.1898V5.79634H14.2094V5.61822H14.2289V5.36094H14.2485V4.96512H14.2289V4.68805H14.2094V4.54951H14.1898V4.41098H14.1703V4.29223H14.1507V4.21307H14.1312V4.11412H14.1116V4.03495H14.0921V3.95579H14.0725V3.89642H14.053V3.83705H14.0334V3.75788H14.0139V3.69851H13.9943V3.65893H13.9748V3.59955H13.9552V3.54018H13.9356V3.5006H13.9161V3.44123H13.8965V3.40165H13.877V3.36206H13.8574V3.30269H13.8379V3.26311H13.8183V3.22353H13.7988V3.18395H13.7792V3.14437H13.7597V3.10478H13.7401V3.0652H13.7206V3.02562H13.701V2.98604H13.6815V2.94646H13.6619V2.90688H13.6424V2.88708H13.6228V2.8475H13.6033V2.80792H13.5837V2.78813H13.5642V2.74855H13.5446V2.70897H13.5251V2.68918H13.5055V2.6496H13.4859V2.61001H13.4664V2.59022H13.4468V2.57043H13.4273V2.53085H13.4077V2.51106H13.3882V2.47148H13.3686V2.45169H13.3491V2.4121H13.3295V2.39231H13.31V2.37252H13.2904V2.33294H13.2709V2.31315H13.2513V2.29336H13.2318V2.25378H13.2122V2.23399H13.1927V2.2142H13.1731V2.17461H13.1536V2.15482H13.134V2.13503H13.1145V2.11524H13.0949V2.09545H13.0754V2.05587H13.0558V2.03608H13.0363V2.01629H13.0167V1.9965H12.9971V1.97671H12.9776V1.95691H12.958V1.93712H12.9385V1.89754H12.9189V1.87775H12.8994V1.85796H12.8798V1.83817H12.8603V1.81838H12.8407V1.79859H12.8212V1.7788H12.8016V1.75901H12.7821V1.73922H12.7625V1.71943H12.743V1.69963H12.7234V1.67984H12.7039V1.66005H12.6843V1.64026H12.6648V1.62047H12.6452V1.60068H12.6257V1.58089H12.6061V1.5611H12.5866V1.54131H12.567V1.52152H12.5475V1.50173H12.5279V1.48194H12.5083V1.46214H12.4888V1.44235H12.4497V1.42256H12.4301V1.40277H12.4106V1.38298H12.391V1.36319H12.3715V1.3434H12.3519V1.32361H12.3324V1.30382H12.2933V1.28403H12.2737V1.26424H12.2542V1.24445H12.2346V1.22465H12.2151V1.20486H12.176V1.18507H12.1564V1.16528H12.1369V1.14549H12.1173V1.1257H12.0782V1.10591H12.0586V1.08612H12.0391V1.06633H12V1.04654H11.9804V1.02674H11.9609V1.00695H11.9218V0.987164H11.9022V0.967373H11.8827V0.947582H11.8436V0.927792H11.824V0.908001H11.7849V0.88821H11.7654V0.86842H11.7263V0.848629H11.7067V0.828836H11.6676V0.809046H11.6481V0.789255H11.609V0.769464H11.5894V0.749674H11.5503V0.729883H11.5307V0.710093H11.4916V0.690302H11.4525V0.670511H11.433V0.650719H11.3939V0.630928H11.3548V0.611137H11.3352V0.591347H11.2961V0.571556H11.257V0.551765H11.2179V0.531975H11.1984V0.512184H11.1593V0.472603H11.1788V0.45281H11.1984V0.43302H11.2179V0.413229H11.2375V0.393438H11.257V0.373648H11.2766V0.353857H11.2961V0.334066H11.3157V0.314276H11.3352V0.294485H11.3548V0.274694H11.3743V0.254902H11.3939V0.235111H11.433V0.215321H11.4525V0.19553H11.4916V0.175739H11.5307V0.155949H11.5503V0.136158H11.5894V0.116367H11.6285V0.0965767H11.7067V0.076786H11.7654V0.0569935H11.9022V0.0372028H12.0978V0.0569935H12.2346V0.076786H12.2933V0.0965767H12.3715V0.116367H12.4106V0.136158H12.4497V0.155949H12.4692V0.175739H12.5083V0.19553H12.5475V0.215321H12.567V0.235111H12.6061V0.254902H12.6257V0.274694H12.6452V0.294485H12.6648V0.314276H12.6843V0.334066H12.7039V0.353857H12.7234V0.373648H12.743V0.393438H12.7625V0.413229H12.7821V0.43302H12.8016V0.45281H12.8212V0.472603H12.8407V0.492393H12.8603V0.512184H12.8798V0.531975H12.8994V0.551765H12.9189V0.571556H12.9385V0.591347H12.958V0.611137H12.9776V0.630928H12.9971V0.650719H13.0167V0.670511H13.0363V0.690302H13.0558V0.710093H13.0754V0.729883H13.0949V0.749674H13.1145V0.769464H13.134V0.789255H13.1536V0.809046H13.1731V0.828836H13.1927V0.848629H13.2122V0.86842H13.2318V0.88821H13.2513V0.908001H13.2709V0.927792H13.2904V0.947582H13.31V0.967373H13.3295V0.987164H13.3491V1.00695H13.3686V1.02674H13.3882V1.04654H13.4077V1.06633H13.4273V1.08612H13.4468V1.10591H13.4664V1.1257H13.4859V1.14549H13.5055V1.16528H13.5251V1.18507H13.5446V1.20486H13.5642V1.22465H13.5837V1.24445H13.6033V1.26424H13.6228V1.28403H13.6424V1.30382H13.6619V1.32361H13.6815V1.3434H13.701V1.36319H13.7206V1.38298H13.7401V1.40277H13.7597V1.42256H13.7792V1.44235H13.7988V1.46214H13.8183V1.48194H13.8379V1.50173H13.8574V1.52152H13.877V1.54131H13.8965V1.5611H13.9161V1.58089H13.9356V1.60068H13.9552V1.62047H13.9748V1.64026H13.9943V1.66005H14.0139V1.67984H14.0334V1.69963H14.053V1.71943H14.0725V1.73922H14.0921V1.75901H14.1116V1.7788H14.1312V1.79859H14.1507V1.81838H14.1703V1.83817H14.1898V1.85796H14.2094V1.87775H14.2289V1.89754H14.2485V1.91733H14.268V1.93712H14.2876V1.95691H14.3071V1.97671H14.3267V1.9965H14.3462V2.01629H14.3658V2.03608H14.3853V2.05587H14.4049V2.07566H14.4244V2.09545H14.444V2.11524H14.4636V2.13503H14.4831V2.15482H14.5027V2.17461H14.5222V2.1944H14.5418V2.2142H14.5613V2.23399H14.5809V2.25378H14.6004V2.27357H14.62V2.29336H14.6395V2.31315H14.6591V2.33294H14.6786V2.35273H14.6982V2.37252H14.7177V2.39231H14.7373V2.4121H14.7568V2.4319H14.7764V2.45169H14.7959V2.47148H14.8155V2.49127H14.835V2.51106H14.8546V2.53085H14.8741V2.55064H14.8937V2.57043H14.9132V2.59022H14.9328V2.61001H14.9524V2.6298H14.9719V2.6496H14.9915V2.66939H15.011V2.68918H15.0306V2.70897H15.0501V2.72876H15.0697V2.74855H15.0892V2.76834H15.1088V2.78813H15.1283V2.80792H15.1479V2.82771H15.1674V2.8475H15.187V2.86729H15.2065V2.88708H15.2261V2.90688H15.2456V2.92667H15.2652V2.94646H15.2847V2.96625H15.3043V2.98604H15.3238V3.00583H15.3434V3.02562H15.3629V3.04541H15.3825V3.0652H15.4021V3.08499H15.4216V3.10478H15.4412V3.12457H15.4607V3.14437H15.4803V3.16416H15.4998V3.18395H15.5194V3.20374H15.5389V3.22353H15.5585V3.24332H15.578V3.26311H15.5976V3.2829H15.6171V3.30269H15.6367V3.32248H15.6562V3.34227H15.6758V3.36206H15.6953V3.38186H15.7149V3.40165H15.7344V3.42144H15.754V3.44123H15.7735V3.46102H15.7931V3.48081H15.8126V3.5006H15.8322V3.52039H15.8517V3.54018H15.8713V3.55997H15.8909V3.57976H15.9104V3.59955H15.93V3.61935H15.9495V3.63914H15.9691V3.65893H15.9886V3.67872H16.0082V3.69851H16.0277V3.7183H16.0473V3.73809H16.0668V3.75788H16.0864V3.77767H16.1059V3.79746H16.1255V3.81726H16.145V3.83705H16.1646V3.85684H16.1841V3.87663H16.2037V3.89642H16.2232V3.91621H16.2428V3.936H16.2623V3.95579H16.2819V3.97558H16.3014V3.99537H16.321V4.01516H16.3405V4.03495H16.3601V4.05474H16.3797V4.07454H16.3992V4.09433H16.4188V4.11412H16.4383V4.13391H16.4579V4.1537H16.4774V4.17349H16.497V4.19328H16.5165V4.21307H16.5361V4.23286H16.5556V4.25265H16.5752V4.27244H16.5947V4.29223H16.6143V4.31203H16.6338V4.33182H16.6534V4.35161H16.6729V4.3714H16.6925V4.39119H16.712V4.41098H16.7316V4.43077H16.7511V4.45056H16.7707V4.47035H16.7902V4.49014H16.8098V4.50993H16.8294V4.52972H16.8489V4.54951H16.8685V4.56931H16.888V4.5891H16.9076V4.60889H16.9271V4.62868H16.9467V4.64847H16.9662V4.66826H16.9858V4.68805H17.0053V4.70784H17.0249V4.72763H17.0444V4.74742H17.064V4.76721H17.0835V4.78701H17.1031V4.8068H17.1226V4.82659H17.1422V4.84638H17.1617V4.86617H17.1813V4.88596H17.2008V4.90575H17.2204V4.92554H17.2399V4.94533H17.2595V4.96512H17.279V4.98491H17.2986V5.00471H17.3182V5.0245H17.3377V5.04429H17.3573V5.06408H17.3768V5.08387H17.3964V5.10366H17.4159V5.12345H17.4355V5.14324H17.455V5.16303H17.4746V5.18282H17.4941V5.20261H17.5137V5.2224H17.5332V5.2422H17.5528V5.26199H17.5723V5.28178H17.5919V5.30157H17.6114V5.32136H17.631V5.34115H17.6505V5.36094H17.6701V5.38073H17.6896V5.40052H17.7092V5.42031H17.7287V5.4401H17.7483V5.45989H17.7678V5.47968H17.7874V5.49948H17.807V5.51927H17.8265V5.53906H17.8461V5.55885H17.8656V5.57864H17.8852V5.59843H17.9047V5.61822H17.9243V5.63801H17.9438V5.6578H17.9634V5.67759H17.9829V5.69738H18.0025V5.71717H18.022V5.73697H18.0416V5.75676H18.0611V5.77655H18.0807V5.79634H18.1002V5.81613H18.1198V5.83592H18.1393V5.85571H18.1589V5.8755H18.1784V5.89529H18.198V5.91508H18.2175V5.93487H18.2371V5.95467H18.2566V5.97446H18.2762V5.99425H18.2958V6.01404H18.3153V6.03383H18.3349V6.05362H18.3544V6.07341H18.374V6.0932H18.3935V6.11299H18.4131V6.13278H18.4326V6.15257H18.4522V6.17236H18.4717V6.19215H18.4913V6.21195H18.5108V6.23174H18.5304V6.25153H18.5499V6.27132H18.5695V6.29111H18.589V6.3109H18.6086V6.33069H18.6281V6.35048H18.6477V6.37027H18.6672V6.39006H18.6868V6.40985H18.7063V6.42965H18.7259V6.44944H18.7455V6.46923H18.765V6.48902H18.7846V6.50881H18.8041V6.5286H18.8237V6.54839H18.8432V6.56818H18.8628V6.58797H18.8823V6.60776H18.9019V6.62755H18.9214V6.64734H18.941V6.66714H18.9605V6.68693H18.9801V6.70672H18.9996V6.72651H19.0192V6.7463H19.0387V6.76609H19.0583V6.78588H19.0778V6.80567H19.0974V6.82546H19.1169V6.84525H19.1365V6.86504H19.156V6.88483H19.1756V6.90463H19.1951V6.92442H19.2147V6.94421H19.2343V6.964H19.2538V6.98379H19.2734V7.00358H19.2929V7.02337H19.3125V7.04316H19.332V7.06295H19.3516V7.08274H19.3711V7.10253H19.3907V7.12232H19.4102V7.14212H19.4298V7.16191H19.4493V7.1817H19.4689V7.20149H19.4884V7.22128H19.508V7.24107H19.5275V7.26086H19.5471V7.28065H19.5666V7.30044H19.5862V7.32023H19.6057V7.34002H19.6253V7.35981H19.6448V7.37961H19.6644V7.3994H19.684V7.41919H19.7035V7.43898H19.7231V7.45877H19.7426V7.47856H19.7622V7.49835H19.7817V7.51814H19.8013V7.53793H19.8208V7.55772H19.8404V7.57751H19.8599V7.59731H19.8795V7.6171H19.899V7.63689H19.9186V7.65668H19.9381V7.67647H19.9577V7.69626H19.9772V7.71605H19.9968V7.73584H20.0163V7.75563H20.0359V7.77542H20.0554V7.79521H20.075V7.815H20.0945V7.83479H20.1141V7.85459H20.1336V7.87438H20.1532V7.89417H20.1728V7.91396H20.1923V7.93375H20.2119V7.95354H20.2314V7.97333H20.251V7.99312H20.2705V8.01291H20.2901V8.0327H20.3096V8.05249H20.3292V8.07228H20.3487V8.09208H20.3683V8.11187H20.3878V8.13166H20.4074V8.15145H20.4269V8.17124H20.4465V8.19103H20.466V8.21082H20.4856V8.23061H20.5051V8.2504H20.5247V8.27019H20.5442V8.28998H20.5638V8.30978H20.5833V8.32957H20.6029V8.34936H20.6224V8.36915H20.642V8.38894H20.6616V8.40873H20.6811V8.42852H20.7007V8.44831H20.7202V8.4681H20.7398V8.48789H20.7593V8.50768H20.7789V8.52747H20.7984V8.54727H20.818V8.56706H20.8375V8.58685H20.8571V8.60664H20.8766V8.62643H20.8962V8.64622H20.9157V8.66601H20.9353V8.6858H20.9548V8.70559H20.9744V8.72538H20.9939V8.74517H21.0135V8.76496H21.033V8.78476H21.0526V8.80455H21.0721V8.82434H21.0917V8.84413H21.1112V8.86392H21.1308V8.88371H21.1504V8.9035H21.1699V8.92329H21.1895V8.94308H21.2286V8.96287H21.2481V8.98266H21.2677V9.00245H21.2872V9.02225H21.3068V9.04204H21.3263V9.06183H21.3459V9.08162H21.3654V9.10141H21.385V9.1212H21.4045V9.14099H21.4241V9.16078H21.4436V9.18057H21.4632V9.20036H21.4827V9.22015H21.5023V9.23994H21.5218V9.25974H21.5414V9.27953H21.5609V9.29932H21.5805V9.31911H21.6V9.3389H21.6196V9.35869H21.6392V9.37848H21.6587V9.39827H21.6783V9.41806H21.6978V9.43785H21.7174V9.45764H21.7369V9.47744H21.7565V9.49723H21.776V9.51702H21.7956V9.53681H21.8151V9.5566H21.8347V9.57639H21.8542V9.59618H21.8738V9.61597H21.8933V9.63576H21.9129V9.65555H21.9324V9.67534H21.952V9.69513H21.9715V9.71492H21.9911V9.73472H22.0106V9.75451H22.0302V9.7743H22.0497V9.79409H22.0693V9.81388H22.0889V9.83367H22.1084V9.85346H22.128V9.87325H22.1475V9.89304H22.1671V9.91283H22.1866V9.93262H22.2062V9.95242H22.2257V9.97221H22.2453V9.992H22.2648V10.0118H22.2844V10.0316H22.3039V10.0514H22.3235V10.0712H22.343V10.091H22.3626V10.1107H22.3821V10.1305H22.4017V10.1503H22.4212V10.1701H22.4408V10.1899H22.4603V10.2097H22.4799V10.2295H22.4994V10.2493H22.519V10.2691H22.5385V10.2889H22.5581V10.3087H22.5777V10.3284H22.5972V10.3482H22.6168V10.368H22.6363V10.3878H22.6559V10.4076H22.6754V10.4274H22.695V10.4472H22.7145V10.467H22.7341V10.4868H22.7536V10.5066H22.7732V10.5263H22.7927V10.5461H22.8123V10.5659H22.8318V10.5857H22.8514V10.6055H22.8709V10.6253H22.8905V10.6451H22.91V10.6649H22.9296V10.6847H22.9491V10.7045H22.9687V10.7243H22.9882V10.744H23.0078V10.7638H23.0274V10.7836H23.0469V10.8034H23.0665V10.8232H23.086V10.843H23.1056V10.8628H23.1251V10.8826H23.1447V10.9024H23.1642V10.9222H23.1838V10.942H23.2033V10.9617H23.2229V10.9815H23.2424V11.0013H23.262V11.0211H23.2815V11.0409H23.3011V11.0607H23.3206V11.0805H23.3402V11.1003H23.3597V11.1201H23.3793V11.1399H23.3988V11.1597H23.4184V11.1794H23.4379V11.1992H23.4575V11.219H23.477V11.2388H23.4966V11.2586H23.5162V11.2784H23.5357V11.2982H23.5553V11.318H23.5748V11.3378H23.5944V11.3576H23.6139V11.3774H23.6335V11.3971H23.653V11.4169H23.6726V11.4367H23.6921V11.4565H23.7117V11.4763H23.7312V11.4961H23.7508V11.5357H23.7703V11.5555H23.7899V11.5753H23.8094V11.5951H23.829V11.6346H23.8485V11.6544H23.8681V11.694H23.8876V11.7138H23.9072V11.7732H23.9267V11.8128H23.9463V11.8523H23.9658V11.9315H23.9854V12.0107H24.005V12.3471H23.9854V12.4461H23.9658V12.5054H23.9463V12.5648H23.9267V12.6044H23.9072V12.644H23.8876V12.6836H23.8681V12.7231H23.8485V12.7429H23.829V12.7825H23.8094V12.8023H23.7899V12.8221H23.7703V12.8419H23.7508V12.8617H23.7312V12.8815H23.7117V12.921H23.6726V12.9408H23.653V12.9606H23.6335V12.9804H23.6139V13.0002H23.5748V13.02H23.5357V13.0398H23.5162V13.0596H23.477V13.0794H23.4379V13.0992H23.3793V13.1189H23.3206V13.1387H23.2424V13.1585H23.1056V13.1783H21.9129V13.1981H21.8542V13.2179H21.7956V13.2377H21.7565V13.2575H21.7369V13.2773H21.6978V13.2971H21.6783V13.3169H21.6587V13.3366H21.6196V13.3564H21.6V13.396H21.5805V13.4158H21.5609V13.4356H21.5414V13.4752H21.5218V13.5148H21.5023V13.5346H21.4827V13.5939H21.4632V13.6731H21.4436V15.2366H21.4632V17.3542H21.4827V18.0865H21.3263V18.1062H21.1504V18.126H21.0135V18.1458H20.8766V18.1656H20.7202V18.1854H20.5833V18.2052H20.466V18.225H20.3487V18.2448H20.251V18.2646H20.1336V18.2844H20.0359V18.3042H19.9186V18.3239H19.8208V18.3437H19.7035V18.3635H19.6057V18.3833H19.508V18.4031H19.4298V18.4229H19.3516V18.4427H19.2538V18.4625H19.1756V18.4823H19.0778V18.5021H18.9996V18.5218H18.9019V18.5416H18.8237V18.5614H18.7455V18.5812H18.6477V18.601H18.5695V18.6208H18.4913V18.6406H18.4326V18.6604H18.3544V18.6802H18.2762V18.7H18.198V18.7198H18.1198V18.7395H18.0416V18.7593H17.9634V18.7791H17.8852V18.7989H17.8265V18.8187H17.7483V18.8385H17.6701V18.8583H17.5919V18.8781H17.5332V18.8979H17.455V18.9177H17.3768V18.9375H17.3182V18.9572H17.2399V18.977H17.1813V18.9968H17.1031V19.0166H17.0249V19.0364H16.9662V19.0562H16.888V19.076H16.8294V19.0958H16.7511V19.1156H16.6729V19.1354H16.6143V19.1552H16.5361V19.1749H16.4774V19.1947H16.3992V19.2145H16.3405V19.2343H16.2819V19.2541H16.2037V19.2739H16.145V19.2937H16.0668V19.3135H16.0082V19.3333H15.93V19.3531H15.8713V19.3729H15.7931V19.3926H15.7344V19.4124H15.6562V19.4322H15.5976V19.452H15.5194V19.4718H15.4607V19.4916H15.3825V19.5114H15.3238V19.5312H15.2456V19.551H15.187V19.5708H15.1088V19.5906H15.0501V19.6103H14.9719V19.6301H14.9132V19.6499H14.835V19.6697H14.7764V19.6895H14.6982V19.7093H14.6395V19.7291H14.5613V19.7489H14.4831V19.7687H14.4244V19.7885H14.3462V19.8083H14.2876V19.828H14.2094V19.8478H14.1312V19.8676H14.0725V19.8874H13.9943V19.9072H13.9356V19.927H13.8574V19.9468H13.7792V19.9666H13.701V19.9864H13.6424V20.0062H13.5642V17.0969H13.5446V16.9782H13.5251V16.9188H13.5055V16.8594H13.4859V16.8198H13.4664V16.7803H13.4468V16.7407H13.4273V16.7209H13.4077V16.6813H13.3882V16.6615H13.3686V16.6417H13.3491V16.6219H13.3295V16.6021H13.31V16.5823H13.2904V16.5626H13.2709V16.5428H13.2513V16.523H13.2318V16.5032H13.1927V16.4834H13.1731V16.4636H13.134V16.4438H13.0949V16.424H13.0558V16.4042H12.9971V16.3844H12.9189V16.3646H12.8212V16.3449H11.1788V16.3646H11.0615V16.3844H11.0028V16.4042H10.9442V16.424H10.9051V16.4438H10.866V16.4636H10.8269V16.4834H10.8073V16.5032H10.7682V16.523H10.7487V16.5428H10.7291V16.5626H10.7096V16.5823H10.69V16.6021H10.6705V16.6219H10.6509V16.6417H10.6313V16.6615H10.6118V16.6813H10.5922V16.7209H10.5727V16.7407H10.5531V16.7803H10.5336V16.8198H10.514V16.8594H10.4945V16.9188H10.4749V16.9782H10.4554V17.0771H10.4358V20.7186H10.3576V20.7384H10.2403V20.7582H10.1034V20.778H9.96658V20.7978H9.82972V20.8176H9.69285V20.8374H9.51688V20.8572H9.36047V20.877H9.1845V20.8968H9.02808V20.9165H8.81301V20.9363H8.55883V20.9561H8.32421V20.9759H7.97227V20.9957H7.46392V21.0155" fill="#3C81CB"/>
<path d="M19.055 6.07353C18.9234 6.02251 16.9135 3.81394 16.8465 3.64666C16.8269 3.59784 16.8092 2.87087 16.8072 2.03118C16.8041 0.764954 16.817 0.477947 16.8829 0.348974C17.0304 0.0604225 17.1591 0.0326424 18.3485 0.0326424C19.5135 0.0326424 19.7053 0.070503 19.7631 0.311915C19.7787 0.376986 19.785 1.65619 19.777 3.15459L19.7625 5.87896L19.6316 5.97682C19.4675 6.09947 19.2262 6.13993 19.055 6.07353H19.055Z" fill="#4379B4"/>
</g>
<defs>
<clipPath id="clip0">
<rect width="24" height="21" fill="white"/>
</clipPath>
</defs>
</svg>
