<svg width="24" height="17" viewBox="0 0 24 17" fill="none" xmlns="http://www.w3.org/2000/svg">
<path fill-rule="evenodd" clip-rule="evenodd" d="M7.90556 5.58662C7.98121 4.68067 8.31643 3.7305 8.07533 2.88935C7.51376 1.68797 4.86227 1.12138 3.5881 1.3345C2.79111 2.56352 3.11996 4.07998 3.26662 5.48098L7.90556 5.58662Z" fill="#522816"/>
<path fill-rule="evenodd" clip-rule="evenodd" d="M5.57251 5.53349V1.4472C6.65983 1.68122 7.74045 2.17196 8.07531 2.88935C8.31609 3.7305 7.98125 4.68067 7.90554 5.58661L5.57251 5.53349Z" fill="#422116"/>
<path fill-rule="evenodd" clip-rule="evenodd" d="M5.53174 14.0872C6.23497 14.0967 6.92781 14.069 7.61162 14.003V8.24857L7.37787 8.1549C6.86384 7.94884 6.2276 7.71176 5.53174 7.62485V14.0872Z" fill="#B5DFDE"/>
<path fill-rule="evenodd" clip-rule="evenodd" d="M5.53162 14.0872C4.82806 14.0967 4.13522 14.069 3.45142 14.003V8.24857L3.68516 8.1549C4.19951 7.94884 4.83543 7.71176 5.53162 7.62485V14.0872Z" fill="#B5DFDE"/>
<path fill-rule="evenodd" clip-rule="evenodd" d="M4.04651 6.49255H7.01645V8.13585C6.02658 8.85723 5.03639 8.88609 4.04651 8.13585V6.49255Z" fill="#DEA46D"/>
<path fill-rule="evenodd" clip-rule="evenodd" d="M4.3088 3.11873C3.88787 3.04349 3.48468 3.43812 3.40967 3.82506C3.33999 4.17976 3.29146 4.54399 3.27405 4.90882C3.26238 4.90699 3.32465 4.90639 3.2396 4.90639C3.15492 4.90639 2.87794 4.96351 2.89134 5.3007C2.90102 5.55344 3.14081 6.28834 3.45558 6.16765C3.91234 7.28887 4.52649 7.9218 5.53177 8.14599C5.54848 8.1162 5.55654 8.1392 5.57259 8.12971V3.23668C5.16706 3.2379 4.7612 3.19983 4.3088 3.11875" fill="#F1B986"/>
<path fill-rule="evenodd" clip-rule="evenodd" d="M6.79511 3.11873C7.21605 3.04349 7.61889 3.43812 7.6939 3.82506C7.76357 4.17976 7.81211 4.54399 7.82986 4.90882C7.84125 4.90699 7.77926 4.90639 7.86432 4.90639C7.94975 4.90639 8.22563 4.96351 8.21224 5.3007C8.20256 5.55344 7.96277 6.28834 7.648 6.16765C7.18554 7.30423 6.56134 7.93009 5.53162 8.14599V3.23668C5.93715 3.2379 6.34235 3.19983 6.79508 3.11875" fill="#EAAE77"/>
<path fill-rule="evenodd" clip-rule="evenodd" d="M5.5317 8.68771H6.03936L5.82438 9.4266H5.2387L5.02405 8.68771H5.5317Z" fill="#EF3021"/>
<path fill-rule="evenodd" clip-rule="evenodd" d="M5.82432 9.40448L6.03228 12.2012L5.53164 13.0396L5.03101 12.2012L5.23864 9.40448H5.82432Z" fill="#F04229"/>
<path fill-rule="evenodd" clip-rule="evenodd" d="M5.53163 8.6877L4.65998 9.46467L3.68518 8.15488L4.0465 7.9743C4.41151 8.32747 4.91146 8.55196 5.53163 8.6877Z" fill="#F4FBFC"/>
<path fill-rule="evenodd" clip-rule="evenodd" d="M5.53168 12.9641L3.39288 8.27252C1.45969 9.0372 0.218333 9.62652 0 11.8717C0.878353 13.309 2.9753 14.4845 5.53168 14.483V12.9641Z" fill="#286089"/>
<path fill-rule="evenodd" clip-rule="evenodd" d="M1.74768 13.5073C1.82504 13.5571 1.91344 13.5973 1.99481 13.6443L1.98912 12.7153L1.74801 13.5073" fill="#1E3F69"/>
<path fill-rule="evenodd" clip-rule="evenodd" d="M5.5317 12.9641V14.1498L3.51815 10.8433L4.11722 10.1775L3.20504 9.8983L2.79382 8.51266L3.78972 8.11343L5.5317 12.9641Z" fill="#2F72AA"/>
<path fill-rule="evenodd" clip-rule="evenodd" d="M5.53174 8.6877L6.40308 9.46467L7.37787 8.15488L7.01655 7.9743C6.65188 8.32747 6.15192 8.55196 5.53174 8.6877Z" fill="#F4FBFC"/>
<path fill-rule="evenodd" clip-rule="evenodd" d="M5.53174 12.9641L7.67021 8.27252C9.60374 9.0372 10.8451 9.62652 11.0631 11.8717C10.1851 13.309 8.08813 14.4845 5.53174 14.483V12.9641Z" fill="#245576"/>
<path fill-rule="evenodd" clip-rule="evenodd" d="M9.3154 13.5073C9.23804 13.5571 9.14965 13.5973 9.0686 13.6443L9.0743 12.7153L9.31507 13.5073" fill="#1E3F69"/>
<path fill-rule="evenodd" clip-rule="evenodd" d="M5.53174 12.9641V14.1498L7.54496 10.8432L6.94623 10.1774L7.85808 9.89829L8.26928 8.51265L7.30923 8.12079L5.53174 12.9641Z" fill="#2C6B9A"/>
<path fill-rule="evenodd" clip-rule="evenodd" d="M20.8426 5.58662C20.9182 4.68067 21.2538 3.7305 21.0127 2.88935C20.4511 1.68797 17.7993 1.12138 16.5248 1.3345C15.7281 2.56352 16.0573 4.07998 16.204 5.48098L20.8426 5.58662Z" fill="#522816"/>
<path fill-rule="evenodd" clip-rule="evenodd" d="M18.5092 5.53349V1.4472C19.5965 1.68122 20.6771 2.17196 21.0126 2.88935C21.2531 3.7305 20.9182 4.68067 20.8425 5.58661L18.5092 5.53349Z" fill="#422116"/>
<path fill-rule="evenodd" clip-rule="evenodd" d="M18.4686 14.0872C19.1725 14.0967 19.8647 14.069 20.5488 14.003V8.24857L20.3151 8.1549C19.8007 7.94884 19.1645 7.71176 18.4686 7.62485V14.0872Z" fill="#B5DFDE"/>
<path fill-rule="evenodd" clip-rule="evenodd" d="M18.4686 14.0872C17.7651 14.0967 17.0726 14.069 16.3884 14.003V8.24857L16.6222 8.1549C17.1365 7.94884 17.7731 7.71176 18.4686 7.62485V14.0872Z" fill="#B5DFDE"/>
<path fill-rule="evenodd" clip-rule="evenodd" d="M16.9835 6.49255H19.9541V8.13585C18.9639 8.85723 17.9737 8.88609 16.9835 8.13585V6.49255Z" fill="#DEA46D"/>
<path fill-rule="evenodd" clip-rule="evenodd" d="M17.2457 3.11873C16.8247 3.04349 16.4219 3.43812 16.3466 3.82506C16.2773 4.17976 16.2287 4.54399 16.2106 4.90882C16.1992 4.90699 16.2612 4.90639 16.1764 4.90639C16.0917 4.90639 15.8151 4.96351 15.8278 5.3007C15.8385 5.55344 16.0783 6.28834 16.3931 6.16765C16.8495 7.28887 17.4633 7.9218 18.4686 8.14599C18.4853 8.1162 18.4934 8.1392 18.5091 8.12971V3.23668C18.1033 3.2379 17.6977 3.19983 17.2457 3.11875" fill="#F1B986"/>
<path fill-rule="evenodd" clip-rule="evenodd" d="M19.7325 3.11873C20.1531 3.04349 20.556 3.43812 20.6313 3.82506C20.7006 4.17976 20.7498 4.54399 20.7673 4.90882C20.7787 4.90699 20.7164 4.90639 20.8014 4.90639C20.8865 4.90639 21.1631 4.96351 21.15 5.3007C21.14 5.55344 20.9002 6.28834 20.5855 6.16765C20.1227 7.30423 19.4985 7.93009 18.4688 8.14599V3.23668C18.8746 3.2379 19.2798 3.19983 19.7325 3.11875" fill="#EAAE77"/>
<path fill-rule="evenodd" clip-rule="evenodd" d="M18.4687 8.68771H18.9763L18.7614 9.4266H18.1757L17.9607 8.68771H18.4687Z" fill="#EF3021"/>
<path fill-rule="evenodd" clip-rule="evenodd" d="M18.7614 9.40448L18.969 12.2012L18.4687 13.0396L17.9684 12.2012L18.1757 9.40448H18.7614Z" fill="#F04229"/>
<path fill-rule="evenodd" clip-rule="evenodd" d="M18.4687 8.6877L17.5977 9.46467L16.6222 8.15488L16.9835 7.9743C17.3485 8.32747 17.8488 8.55196 18.4687 8.6877Z" fill="#F4FBFC"/>
<path fill-rule="evenodd" clip-rule="evenodd" d="M18.4686 12.9641L16.3298 8.27252C14.3966 9.0372 13.1556 9.62652 12.9376 11.8717C13.8156 13.309 15.9122 14.4845 18.4686 14.483V12.9641Z" fill="#286089"/>
<path fill-rule="evenodd" clip-rule="evenodd" d="M14.6846 13.5073C14.7622 13.5571 14.8507 13.5973 14.9317 13.6443L14.926 12.7153L14.6849 13.5073" fill="#1E3F69"/>
<path fill-rule="evenodd" clip-rule="evenodd" d="M18.4687 12.9641V14.1498L16.4558 10.8433L17.0549 10.1775L16.1424 9.8983L15.7305 8.51266L16.7267 8.11343L18.4687 12.9641Z" fill="#2F72AA"/>
<path fill-rule="evenodd" clip-rule="evenodd" d="M18.4686 8.6877L19.3399 9.46467L20.3151 8.15488L19.9541 7.9743C19.5887 8.32747 19.0888 8.55196 18.4686 8.6877Z" fill="#F4FBFC"/>
<path fill-rule="evenodd" clip-rule="evenodd" d="M18.4686 12.9641L20.6078 8.27252C22.5403 9.0372 23.782 9.62652 24 11.8717C23.1216 13.309 21.025 14.4845 18.4686 14.483V12.9641Z" fill="#245576"/>
<path fill-rule="evenodd" clip-rule="evenodd" d="M22.2523 13.5073C22.1749 13.5571 22.0872 13.5973 22.0059 13.6443L22.0116 12.7153L22.2523 13.5073Z" fill="#1E3F69"/>
<path fill-rule="evenodd" clip-rule="evenodd" d="M18.4686 12.9641V14.1498L20.4818 10.8432L19.8831 10.1774L20.795 9.89829L21.2068 8.51265L20.2464 8.12079L18.4686 12.9641Z" fill="#2C6B9A"/>
<path fill-rule="evenodd" clip-rule="evenodd" d="M15.0949 5.53625C15.1926 4.36896 15.6243 3.14455 15.3142 2.06079C14.5902 0.512391 11.1736 -0.217589 9.53103 0.0566509C8.50433 1.64067 8.92861 3.59476 9.11748 5.4002L15.0949 5.53625Z" fill="#522816"/>
<path fill-rule="evenodd" clip-rule="evenodd" d="M12.0884 5.46775V0.202209C13.4898 0.503782 14.8819 1.13611 15.3142 2.06079C15.6243 3.14454 15.1926 4.36895 15.0948 5.53624L12.0884 5.46775Z" fill="#422116"/>
<path fill-rule="evenodd" clip-rule="evenodd" d="M12.0359 16.4899C12.943 16.502 13.8351 16.466 14.7165 16.3815V8.96659L14.4158 8.84559C13.7528 8.57995 12.9327 8.27408 12.0359 8.16229V16.4899Z" fill="#B5DFDE"/>
<path fill-rule="evenodd" clip-rule="evenodd" d="M12.0359 16.4899C11.1291 16.502 10.237 16.466 9.35559 16.3815V8.96659L9.65664 8.84559C10.319 8.57995 11.1398 8.27408 12.0359 8.16229V16.4899Z" fill="#B5DFDE"/>
<path fill-rule="evenodd" clip-rule="evenodd" d="M10.1224 6.70355H13.9496V8.82071C12.6741 9.75061 11.3983 9.78777 10.1224 8.82071V6.70355Z" fill="#DEA46D"/>
<path fill-rule="evenodd" clip-rule="evenodd" d="M10.4599 2.3559C9.91779 2.25885 9.39874 2.76772 9.30129 3.26645C9.21225 3.72372 9.14927 4.19266 9.12649 4.66283C9.11207 4.66065 9.1918 4.65944 9.08264 4.65944C8.9728 4.65944 8.6165 4.73314 8.63392 5.16769C8.64635 5.49352 8.95504 6.44032 9.36157 6.28492C9.94927 7.72952 10.7412 8.54487 12.0358 8.83385C12.058 8.79577 12.068 8.82494 12.0884 8.81297V2.50789C11.5657 2.50972 11.0433 2.4606 10.46 2.35588" fill="#F1B986"/>
<path fill-rule="evenodd" clip-rule="evenodd" d="M13.6646 2.3559C14.2068 2.25885 14.7255 2.76772 14.823 3.26645C14.9124 3.72372 14.975 4.19266 14.9978 4.66283C15.0125 4.66065 14.9328 4.65944 15.042 4.65944C15.1515 4.65944 15.5075 4.73314 15.4911 5.16769C15.4783 5.49352 15.1692 6.44032 14.7631 6.28492C14.167 7.74918 13.3626 8.55562 12.0359 8.83385V2.5079C12.5586 2.50972 13.081 2.4606 13.6647 2.35588" fill="#EAAE77"/>
<path fill-rule="evenodd" clip-rule="evenodd" d="M12.0358 9.53223H12.6902L12.4132 10.4845H11.6588L11.3818 9.53223H12.0358Z" fill="#EF3021"/>
<path fill-rule="evenodd" clip-rule="evenodd" d="M12.4132 10.4557L12.6811 14.0595L12.0358 15.1402L11.3909 14.0595L11.6588 10.4557H12.4132Z" fill="#F04229"/>
<path fill-rule="evenodd" clip-rule="evenodd" d="M12.0359 9.53225L10.9134 10.5334L9.65662 8.84557L10.1224 8.6131C10.5926 9.06791 11.2372 9.3572 12.0359 9.53225Z" fill="#F4FBFC"/>
<path fill-rule="evenodd" clip-rule="evenodd" d="M12.0359 15.0425L9.28024 8.99695C6.78915 9.98243 5.18983 10.7419 4.9082 13.6351C6.04006 15.4866 8.74211 17.0021 12.0359 17V15.0425Z" fill="#286089"/>
<path fill-rule="evenodd" clip-rule="evenodd" d="M7.16052 15.7427C7.26032 15.8069 7.37351 15.8588 7.47832 15.9193L7.47073 14.7219L7.16062 15.7427" fill="#1E3F69"/>
<path fill-rule="evenodd" clip-rule="evenodd" d="M12.0359 15.0425V16.5703L9.44168 12.3096L10.2135 11.4516L9.03815 11.0923L8.50806 9.30651L9.79128 8.79211L12.0359 15.0425Z" fill="#2F72AA"/>
<path fill-rule="evenodd" clip-rule="evenodd" d="M12.0359 9.53225L13.159 10.5334L14.4158 8.84557L13.9497 8.6131C13.4798 9.06791 12.8352 9.3572 12.0359 9.53225Z" fill="#F4FBFC"/>
<path fill-rule="evenodd" clip-rule="evenodd" d="M12.0359 15.0425L14.7922 8.99695C17.2829 9.98243 18.8826 10.7419 19.1639 13.6351C18.0324 15.4866 15.33 17.0021 12.0359 17V15.0425Z" fill="#245576"/>
<path fill-rule="evenodd" clip-rule="evenodd" d="M16.9118 15.7427C16.812 15.8069 16.6985 15.8588 16.594 15.9193L16.6006 14.7219L16.9114 15.7427" fill="#1E3F69"/>
<path fill-rule="evenodd" clip-rule="evenodd" d="M12.0359 15.0425V16.5704L14.6304 12.3096L13.8589 11.4516L15.034 11.0923L15.5641 9.30651L14.3271 8.80164L12.0359 15.0425Z" fill="#2C6B9A"/>
</svg>
