<svg width="24" height="9" viewBox="0 0 24 9" fill="none" xmlns="http://www.w3.org/2000/svg">
<path d="M7.36587 1.99944C7.36587 2.72418 6.75752 3.31166 6.00684 3.31166C5.25636 3.31166 4.64795 2.72418 4.64795 1.99944C4.64795 1.27471 5.25636 0.687042 6.00684 0.687042C6.75752 0.687042 7.36587 1.27471 7.36587 1.99944Z" fill="#F68712"/>
<path d="M8.42074 6.31297V5.83428C8.42074 4.54698 7.34005 3.5032 6.00702 3.5032C4.67383 3.5032 3.59314 4.54698 3.59314 5.83428V6.31297H8.42074Z" fill="#F68712"/>
<path d="M13.3538 1.99944C13.3538 2.72418 12.7453 3.31166 11.9948 3.31166C11.2443 3.31166 10.636 2.72418 10.636 1.99944C10.636 1.27471 11.2443 0.687042 11.9948 0.687042C12.7453 0.687042 13.3538 1.27471 13.3538 1.99944Z" fill="#219653"/>
<path d="M14.4087 6.31286V5.83425C14.4087 4.54696 13.328 3.50314 11.9949 3.50314C10.6617 3.50314 9.58118 4.54696 9.58118 5.83425V6.31286H14.4087Z" fill="#219653"/>
<path d="M19.3644 2.04913C19.3644 2.76559 18.7629 3.34626 18.0209 3.34626C17.279 3.34626 16.6777 2.76559 16.6777 2.04913C16.6777 1.33266 17.279 0.751801 18.0209 0.751801C18.7629 0.751801 19.3644 1.33266 19.3644 2.04913Z" fill="#9B51E0"/>
<path d="M20.4068 6.31279V5.83974C20.4068 4.56716 19.3387 3.53566 18.0207 3.53566C16.7029 3.53566 15.6348 4.56716 15.6348 5.83974V6.31279H20.4068Z" fill="#9B51E0"/>
<path d="M4.69432 1.63282C4.69432 2.53489 3.93734 3.26582 3.0034 3.26582C2.06946 3.26582 1.3125 2.53489 1.3125 1.63282C1.3125 0.730933 2.06946 0 3.0034 0C3.93734 0 4.69432 0.730933 4.69432 1.63282Z" fill="#FDDD04"/>
<path d="M6 9L6.00686 6.40449C6.00686 4.8027 4.66221 3.50401 3.00344 3.50401C1.34463 3.50401 0 4.8027 0 6.40449V9H6Z" fill="#FDDD04"/>
<path d="M10.7013 1.63282C10.7013 2.53489 9.94421 3.26582 9.01028 3.26582C8.07636 3.26582 7.31946 2.53489 7.31946 1.63282C7.31946 0.730933 8.07636 0 9.01028 0C9.94421 0 10.7013 0.730933 10.7013 1.63282Z" fill="#ED1C24"/>
<path d="M12.0137 9V6.40449C12.0137 4.8027 10.6691 3.50401 9.01036 3.50401C7.35149 3.50401 6.00684 4.8027 6.00684 6.40449L6 9H12.0137Z" fill="#ED1C24"/>
<path d="M16.708 1.63282C16.708 2.53489 15.9511 3.26582 15.0172 3.26582C14.0833 3.26582 13.3262 2.53489 13.3262 1.63282C13.3262 0.730933 14.0833 0 15.0172 0C15.9511 0 16.708 0.730933 16.708 1.63282Z" fill="#231F20"/>
<path d="M18 9L18.0208 6.40448C18.0208 4.80261 16.6761 3.50388 15.0174 3.50388C13.3586 3.50388 12.0139 4.80261 12.0139 6.40448L12 9H18Z" fill="#231F20"/>
<path d="M22.6876 1.63284C22.6876 2.53476 21.9307 3.26589 20.9967 3.26589C20.0628 3.26589 19.3057 2.53476 19.3057 1.63284C19.3057 0.730923 20.0628 1.52588e-05 20.9967 1.52588e-05C21.9307 1.52588e-05 22.6876 0.730923 22.6876 1.63284Z" fill="#3871C1"/>
<path d="M24 9L24 6.40447C24 4.80254 22.6553 3.50395 20.9965 3.50395C19.3379 3.50395 17.9932 4.80254 17.9932 6.40447L18 9H24Z" fill="#3871C1"/>
</svg>
