<svg width="24" height="23" viewBox="0 0 24 23" fill="none" xmlns="http://www.w3.org/2000/svg">
<path d="M7.57188 18.5253C7.6067 18.6919 7.77155 18.799 7.94137 18.7651L8.77859 18.5963C8.94763 18.5623 9.05689 18.3996 9.02207 18.2331L8.62475 16.3227C8.59032 16.1561 8.42477 16.0489 8.25588 16.0832L7.41843 16.2513C7.249 16.2858 7.14005 16.4485 7.17424 16.6148L7.57188 18.5253Z" fill="#0C2948"/>
<path d="M8.4746 16.9662V16.8031C8.56044 16.8111 8.6448 16.8213 8.73026 16.8304L9.02205 18.2331C9.05687 18.3996 8.94761 18.5623 8.77857 18.5962L8.55268 18.6418L7.94173 18.7651C7.77184 18.799 7.60706 18.6919 7.57224 18.5253L7.54138 18.3772C8.09077 18.1369 8.4746 17.5961 8.4746 16.9662Z" fill="#061729"/>
<path d="M3.64673 13.3883C3.64673 13.3883 5.24394 21.6685 6.48415 22.5116C6.48415 22.5116 7.70915 23.4568 9.5721 22.7173C9.5721 22.7173 7.53461 15.0423 7.59688 13.4255L3.64673 13.3883Z" fill="#99DEF9"/>
<path d="M8.58351 22.8687C8.28405 21.7281 6.65388 15.4464 6.49011 13.3096L7.59687 13.32C7.5346 14.9369 9.57209 22.6119 9.57209 22.6119C9.21796 22.7523 8.88732 22.8318 8.58351 22.8687" fill="#7FB7CE"/>
<path d="M8.83605 12.8202V14.0478C8.83605 14.8134 8.20525 15.4342 7.42742 15.4342H4.43492C3.65702 15.4342 3.02625 14.8134 3.02625 14.0478V12.8202H8.83605Z" fill="#0C2948"/>
<path d="M4.1619 14.3657H7.70045C8.13996 14.3657 8.5386 14.1969 8.83605 13.9233V14.0478C8.83605 14.8134 8.20525 15.4342 7.42742 15.4342H4.43492C3.65702 15.4342 3.02625 14.8134 3.02625 14.0478V13.9235C3.32405 14.1971 3.72231 14.3657 4.1619 14.3657Z" fill="#06192C"/>
<path d="M3.64677 6.33453V13.8044C1.61629 13.7117 0 12.075 0 10.0696C0 8.06389 1.61629 6.42735 3.64677 6.33453Z" fill="#0C2948"/>
<path d="M3.64673 13.8044H6.90582V6.32877H3.64673V13.8044Z" fill="#1A528D"/>
<path d="M21.7472 0C21.3006 1.13429 20.9701 5.21137 20.9701 10.0691C20.9701 14.9223 21.3003 18.9967 21.7462 20.1348C20.1456 18.2604 14.7153 13.8076 6.90588 13.8076V6.32875C14.7174 6.32875 20.1483 1.87392 21.7472 0Z" fill="#99DEF9"/>
<path d="M20.718 10.0678C20.718 15.6278 21.1787 20.1348 21.7472 20.1348C22.3153 20.1348 22.7762 15.6278 22.7762 10.0678C22.7762 4.50721 22.3153 0 21.7472 0C21.6239 0 20.718 4.50721 20.718 10.0678Z" fill="#0A223C"/>
<path d="M0.0609399 9.41936L0.061604 9.41383C0.0780014 9.3237 0.0987397 9.23522 0.121854 9.14738C0.12691 9.12723 0.131571 9.10694 0.137242 9.08687C0.160357 9.00393 0.186921 8.9224 0.215691 8.84175C0.223692 8.81845 0.23211 8.79522 0.240805 8.77223C0.270334 8.69419 0.302469 8.61756 0.33697 8.5422C0.348004 8.51827 0.35939 8.49481 0.370804 8.47119C0.406637 8.39733 0.444165 8.32426 0.484664 8.25332C0.497412 8.23088 0.511475 8.20908 0.524556 8.18704C0.567118 8.11594 0.610609 8.0454 0.657895 7.97747C0.669611 7.96016 0.6827 7.9439 0.695124 7.92691C0.853139 7.70636 1.03506 7.5039 1.23709 7.32181C1.25688 7.30397 1.27532 7.28484 1.29537 7.26738C1.34332 7.22615 1.39388 7.18831 1.44382 7.1492C1.48269 7.11887 1.52085 7.08751 1.56141 7.05868C1.6076 7.02511 1.65619 6.99422 1.70411 6.96278C1.751 6.93213 1.79788 6.9014 1.84643 6.8728C1.89305 6.84507 1.94061 6.81933 1.9881 6.79357C2.04147 6.76498 2.09533 6.73725 2.14991 6.71118C2.1965 6.68883 2.24374 6.66757 2.2913 6.64711C2.35031 6.62176 2.41022 6.59814 2.47086 6.5757C2.51708 6.55857 2.56363 6.54142 2.61095 6.52594C2.67619 6.50453 2.7432 6.48573 2.81056 6.46756C2.85472 6.45572 2.89904 6.44291 2.94423 6.43233C3.02056 6.41471 3.09831 6.40097 3.17634 6.38793C3.21429 6.38153 3.25174 6.37331 3.2899 6.36803C3.40753 6.35184 3.52609 6.33998 3.64674 6.33453V8.36494H2.69161V8.37125C1.68326 8.41746 0.767484 8.80588 0.0609131 9.41936" fill="#1E5FA2"/>
<path d="M6.90582 8.35693C6.7129 8.3619 6.51858 8.36491 6.32294 8.36491H3.64673V6.32874H6.90551H6.90573V8.35692" fill="#3C81CB"/>
<path d="M6.90588 6.32876H6.90698C7.12806 6.32876 7.34649 6.32417 7.56353 6.31708C7.63022 6.31484 7.69659 6.31179 7.7632 6.30901C7.91758 6.30238 8.07143 6.29455 8.2238 6.2846C8.29343 6.28001 8.36314 6.27551 8.43254 6.27047C8.60104 6.25775 8.76783 6.24291 8.93401 6.22624C8.97782 6.22198 9.0221 6.21857 9.06598 6.21376C9.27271 6.19179 9.47765 6.16653 9.68043 6.13856C9.73432 6.13128 9.7872 6.12275 9.84086 6.11486C9.99253 6.09273 10.143 6.06936 10.2925 6.04431C10.3591 6.0331 10.4254 6.02141 10.4917 6.00948C10.6354 5.98381 10.7781 5.95655 10.9199 5.92803C10.9762 5.91666 11.0327 5.90601 11.0891 5.89431C11.2813 5.85378 11.472 5.81152 11.6602 5.76641C11.6917 5.75876 11.7225 5.75038 11.7541 5.74264C11.9118 5.70409 12.0686 5.6638 12.2233 5.62201C12.2856 5.6052 12.3472 5.58765 12.4089 5.57058C12.5362 5.53496 12.6621 5.49838 12.7871 5.46078C12.848 5.44246 12.909 5.42437 12.9696 5.40557C13.1178 5.35959 13.2641 5.31227 13.4092 5.26361C13.4401 5.25333 13.4711 5.24362 13.502 5.23336C13.6724 5.1753 13.8406 5.1151 14.0068 5.0538C14.0651 5.03215 14.1223 5.01012 14.1803 4.98823C14.2919 4.94581 14.4031 4.903 14.513 4.85932C14.5767 4.83372 14.6403 4.80836 14.7033 4.78245C14.8118 4.73806 14.9186 4.69303 15.0248 4.64745C15.0801 4.62375 15.1364 4.60037 15.1913 4.57628C15.3408 4.51063 15.4885 4.44388 15.6343 4.3761C15.6922 4.34893 15.7488 4.32128 15.8064 4.29387C15.8999 4.24931 15.9927 4.20477 16.0842 4.15942C16.1522 4.12593 16.2188 4.09212 16.2858 4.05831C16.3655 4.01778 16.4446 3.97694 16.523 3.93586C16.5903 3.90055 16.658 3.86548 16.724 3.82986C16.806 3.78601 16.8861 3.74154 16.9665 3.69722C17.0801 3.63442 17.1916 3.57123 17.3018 3.5078C17.3658 3.47083 17.4304 3.43393 17.4935 3.39672C17.5682 3.35249 17.6415 3.30817 17.7149 3.26362C17.7664 3.23218 17.8181 3.20074 17.8693 3.16922C17.945 3.12222 18.0204 3.07546 18.0944 3.0283C18.1347 3.00278 18.1738 2.97719 18.2134 2.95159C18.4853 2.77622 18.7443 2.60054 18.9906 2.42549C19.0106 2.41111 19.0311 2.39673 19.0511 2.38244C19.1339 2.32327 19.2152 2.2641 19.2951 2.20525C19.3084 2.19537 19.3215 2.18543 19.3346 2.1757C20.4524 1.34562 21.2708 0.558208 21.7472 3.05176e-05C21.5575 0.482216 21.3887 1.49698 21.2574 2.87583C21.1728 2.94804 21.0865 3.0204 20.9971 3.09386C18.2666 5.337 13.3432 8.1925 6.9059 8.35697V6.32878" fill="#B8E8FB"/>
<path d="M23.9894 10.3738L23.9861 10.3712C23.9856 10.3561 23.9854 10.3415 23.985 10.3264C23.9867 10.3423 23.988 10.358 23.9893 10.3738" fill="#1A528D"/>
<path d="M20.9701 7.47244C22.6584 7.56092 24 8.93187 24 10.6152C24 12.2985 22.6584 13.6694 20.9701 13.758V7.47244Z" fill="#99DEF9"/>
<path d="M3.21012 13.7577C3.12438 13.7439 3.03968 13.728 2.9555 13.7089C2.92376 13.7016 2.89223 13.694 2.8607 13.6861C2.77528 13.6644 2.69089 13.6397 2.60812 13.6122C2.58406 13.6044 2.55925 13.5975 2.53542 13.589C2.32311 13.5145 2.11977 13.4223 1.9268 13.314C1.90032 13.2994 1.87479 13.2834 1.84908 13.2681C1.78074 13.2276 1.71374 13.1854 1.64834 13.141C1.6183 13.1207 1.58879 13.1001 1.55926 13.079C1.49729 13.0344 1.43738 12.9876 1.37843 12.9394C1.35229 12.9181 1.32549 12.8976 1.29965 12.8756C1.2206 12.8074 1.14356 12.7365 1.07053 12.6622C1.05016 12.6417 1.03204 12.6197 1.01223 12.5987C0.959678 12.5428 0.908064 12.4858 0.858786 12.4268C0.829374 12.3915 0.801564 12.3547 0.773394 12.3183C0.736562 12.2708 0.700995 12.2227 0.666591 12.1736C0.638419 12.1331 0.610554 12.0923 0.583749 12.0506C0.552306 12.0014 0.522473 11.9507 0.493333 11.9C0.468922 11.8578 0.443694 11.8164 0.421371 11.7734C0.378118 11.6912 0.337946 11.6073 0.301052 11.5217C0.281005 11.4752 0.26352 11.4272 0.245437 11.3798C0.228028 11.3342 0.211244 11.2888 0.195557 11.2426C0.757248 11.5063 1.37971 11.6668 2.03729 11.697H3.64668V13.8044C3.52874 13.7991 3.41274 13.7874 3.29798 13.7718C3.26846 13.7679 3.23963 13.7623 3.21012 13.7577" fill="#06192C"/>
<path d="M6.10791 11.697V11.701C6.37629 11.701 6.64195 11.7064 6.90582 11.7147V13.8044H6.90318H3.64673V11.697H6.10791" fill="#0E3053"/>
<path d="M21.1976 16.5732C21.3357 18.3002 21.527 19.5738 21.7464 20.1345C20.9207 19.1674 19.0731 17.515 16.4079 16.1408C16.3938 16.1337 16.3801 16.1265 16.366 16.1194C16.2515 16.0606 16.1355 16.0024 16.0179 15.9447C16.0012 15.9364 15.9844 15.9286 15.9677 15.9203C15.6236 15.7528 15.2672 15.591 14.8984 15.4357C14.8511 15.4157 14.804 15.3957 14.7564 15.376C14.6552 15.3343 14.553 15.2933 14.4498 15.2525C14.3899 15.229 14.3296 15.2057 14.269 15.1825C14.1688 15.1439 14.0686 15.1055 13.9668 15.0682C13.8995 15.0435 13.8308 15.0198 13.7625 14.9956C13.597 14.9369 13.4294 14.8798 13.2596 14.8243C13.1742 14.7964 13.0891 14.7684 13.0027 14.7414C12.9129 14.7134 12.8221 14.6863 12.7313 14.6593C12.6402 14.6322 12.5488 14.6057 12.457 14.5797C12.3685 14.5548 12.2804 14.5299 12.1909 14.506C12.0814 14.4767 11.9709 14.4486 11.8597 14.4207C11.7799 14.4008 11.7005 14.3802 11.6201 14.3609C11.4507 14.3207 11.2795 14.2825 11.1069 14.2462C11.0299 14.2299 10.9515 14.2149 10.8735 14.1994C10.7548 14.1758 10.6356 14.1529 10.5153 14.1314C10.434 14.1167 10.3518 14.1023 10.2698 14.0885C10.1405 14.0669 10.0102 14.0467 9.87915 14.0273C9.80851 14.0169 9.73849 14.0059 9.66715 13.996C9.47112 13.9691 9.27316 13.9449 9.07318 13.9235C9.01758 13.9175 8.96059 13.9129 8.90468 13.9075C8.75091 13.8923 8.59614 13.8784 8.44005 13.8666C8.36507 13.861 8.28962 13.8561 8.21386 13.8512C8.06723 13.8418 7.91944 13.8341 7.77071 13.8279C7.70038 13.8249 7.63036 13.8214 7.55964 13.8191C7.34663 13.8124 7.13184 13.8079 6.9148 13.8077L6.90649 13.8075V11.7147C13.0898 11.9076 18.0135 14.3107 21.1976 16.5732" fill="#88C5DD"/>
<path d="M21.7472 0C21.3007 1.13429 20.9701 5.21137 20.9701 10.0691C20.9701 14.9223 21.3003 18.9967 21.7462 20.1348C21.3818 19.7079 20.8163 19.1467 20.0715 18.5353C19.4498 15.8081 19.1323 13.0309 19.1189 10.2526C19.1048 7.35111 19.4227 4.44844 20.0723 1.60044C20.8173 0.988619 21.3828 0.426966 21.7472 0Z" fill="#1A528D"/>
<path d="M20.0723 1.60044C20.8173 0.988619 21.3828 0.426966 21.7472 0C21.5575 0.482185 21.3887 1.49696 21.2574 2.87581C21.1728 2.94801 21.0865 3.02036 20.9971 3.09383C20.5774 3.43872 20.1048 3.79799 19.5839 4.15987C19.7186 3.30301 19.8789 2.44915 20.0723 1.60044Z" fill="#3C81CB"/>
<path d="M21.7471 20.1345C21.3826 19.7076 20.8172 19.1465 20.0724 18.5353C19.8406 17.5183 19.6514 16.4943 19.504 15.4657C20.1137 15.832 20.6791 16.2044 21.1984 16.5732C21.336 18.3003 21.5277 19.5738 21.7471 20.1345Z" fill="#113962"/>
<path d="M21.9991 10.4949C21.9991 11.3052 22.3796 11.9623 22.8489 11.9623C23.3184 11.9623 23.6989 11.3052 23.6989 10.4949C23.6989 9.68436 23.3184 9.02753 22.8489 9.02753C22.3796 9.02753 21.9991 9.68436 21.9991 10.4949Z" fill="#BFEAFB"/>
</svg>
