<svg width="48" height="48" viewBox="0 0 48 48" fill="none" xmlns="http://www.w3.org/2000/svg">
<path d="M48 23.5729C48 36.5917 37.2546 47.1459 24 47.1459C10.745 47.1459 0 36.5917 0 23.5729C0 10.5538 10.745 0 24 0C37.2546 0 48 10.5538 48 23.5729Z" fill="#005678" fill-opacity="0.7"/>
<path d="M42.9135 37.7359C40.7775 36.7229 36.9559 34.8958 35.8509 34.3895C34.7458 33.8829 31.7302 32.3544 31.7302 32.3544C31.7302 32.3544 31.5851 29.8898 30.7013 29.745L30.8498 28.0785C30.8498 28.0785 31.8818 25.7622 31.8818 24.315C31.8818 24.315 32.9131 25.1827 33.2815 23.2293C33.6502 21.2754 34.1656 17.6579 32.5451 18.526C32.5451 18.526 32.8766 15.6316 32.582 13.8951C32.2874 12.1585 30.7771 6.80439 24.0001 6.80439C17.223 6.80439 15.7128 12.1585 15.4182 13.8951C15.1232 15.6316 15.455 18.526 15.455 18.526C13.8345 17.6579 14.35 21.2754 14.7183 23.2293C15.0867 25.1827 16.1183 24.315 16.1183 24.315C16.1183 25.7622 17.1503 28.0785 17.1503 28.0785L17.2989 29.745C16.415 29.8898 16.27 32.3544 16.27 32.3544C16.27 32.3544 13.254 33.8829 12.1493 34.3895C11.0443 34.8958 7.22269 36.7229 5.08634 37.7359C2.95034 38.7485 2.74756 45.1453 2.74756 45.1453L24.0001 48L45.2522 45.1453C45.2522 45.1453 45.0498 38.7485 42.9135 37.7359Z" fill="#434341"/>
</svg>
